  0
SECTION
  2
HEADER
  9
$DWGCODEPAGE
  3
UTF-8
  0
ENDSEC
  0
SECTION
  2
ENTITIES
  0
POLYLINE
  8
DESIGN_ROAD_TRIMMED
 62
1
 66
  1
  0
VERTEX
  8
DESIGN_ROAD_TRIMMED
 62
1
 10
0.000
 20
1241.929
  0
VERTEX
  8
DESIGN_ROAD_TRIMMED
 62
1
 10
5.750
 20
1244.804
  0
VERTEX
  8
DESIGN_ROAD_TRIMMED
 62
1
 10
5.750
 20
1244.804
  0
VERTEX
  8
DESIGN_ROAD_TRIMMED
 62
1
 10
5.644
 20
1244.751
  0
VERTEX
  8
DESIGN_ROAD_TRIMMED
 62
1
 10
5.644
 20
1244.751
  0
VERTEX
  8
DESIGN_ROAD_TRIMMED
 62
1
 10
5.328
 20
1244.593
  0
VERTEX
  8
DESIGN_ROAD_TRIMMED
 62
1
 10
5.328
 20
1244.593
  0
VERTEX
  8
DESIGN_ROAD_TRIMMED
 62
1
 10
5.013
 20
1244.436
  0
VERTEX
  8
DESIGN_ROAD_TRIMMED
 62
1
 10
5.013
 20
1244.436
  0
VERTEX
  8
DESIGN_ROAD_TRIMMED
 62
1
 10
4.697
 20
1244.278
  0
VERTEX
  8
DESIGN_ROAD_TRIMMED
 62
1
 10
4.697
 20
1244.278
  0
VERTEX
  8
DESIGN_ROAD_TRIMMED
 62
1
 10
4.381
 20
1244.120
  0
VERTEX
  8
DESIGN_ROAD_TRIMMED
 62
1
 10
4.381
 20
1244.120
  0
VERTEX
  8
DESIGN_ROAD_TRIMMED
 62
1
 10
4.065
 20
1243.962
  0
VERTEX
  8
DESIGN_ROAD_TRIMMED
 62
1
 10
10.750
 20
1244.129
  0
VERTEX
  8
DESIGN_ROAD_TRIMMED
 62
1
 10
10.750
 20
1244.279
  0
VERTEX
  8
DESIGN_ROAD_TRIMMED
 62
1
 10
10.750
 20
1244.279
  0
VERTEX
  8
DESIGN_ROAD_TRIMMED
 62
1
 10
10.750
 20
1244.429
  0
VERTEX
  8
DESIGN_ROAD_TRIMMED
 62
1
 10
10.750
 20
1244.429
  0
VERTEX
  8
DESIGN_ROAD_TRIMMED
 62
1
 10
10.750
 20
1244.579
  0
VERTEX
  8
DESIGN_ROAD_TRIMMED
 62
1
 10
10.750
 20
1244.579
  0
VERTEX
  8
DESIGN_ROAD_TRIMMED
 62
1
 10
10.750
 20
1244.729
  0
VERTEX
  8
DESIGN_ROAD_TRIMMED
 62
1
 10
10.750
 20
1244.729
  0
VERTEX
  8
DESIGN_ROAD_TRIMMED
 62
1
 10
10.750
 20
1244.879
  0
VERTEX
  8
DESIGN_ROAD_TRIMMED
 62
1
 10
10.750
 20
1244.879
  0
VERTEX
  8
DESIGN_ROAD_TRIMMED
 62
1
 10
10.750
 20
1244.929
  0
VERTEX
  8
DESIGN_ROAD_TRIMMED
 62
1
 10
10.750
 20
1244.929
  0
VERTEX
  8
DESIGN_ROAD_TRIMMED
 62
1
 10
10.750
 20
1244.929
  0
VERTEX
  8
DESIGN_ROAD_TRIMMED
 62
1
 10
10.750
 20
1244.929
  0
VERTEX
  8
DESIGN_ROAD_TRIMMED
 62
1
 10
10.750
 20
1244.929
  0
VERTEX
  8
DESIGN_ROAD_TRIMMED
 62
1
 10
10.750
 20
1244.879
  0
VERTEX
  8
DESIGN_ROAD_TRIMMED
 62
1
 10
10.750
 20
1244.879
  0
VERTEX
  8
DESIGN_ROAD_TRIMMED
 62
1
 10
10.750
 20
1244.729
  0
VERTEX
  8
DESIGN_ROAD_TRIMMED
 62
1
 10
10.750
 20
1244.729
  0
VERTEX
  8
DESIGN_ROAD_TRIMMED
 62
1
 10
10.750
 20
1244.579
  0
VERTEX
  8
DESIGN_ROAD_TRIMMED
 62
1
 10
10.750
 20
1244.579
  0
VERTEX
  8
DESIGN_ROAD_TRIMMED
 62
1
 10
10.750
 20
1244.429
  0
VERTEX
  8
DESIGN_ROAD_TRIMMED
 62
1
 10
10.750
 20
1244.429
  0
VERTEX
  8
DESIGN_ROAD_TRIMMED
 62
1
 10
10.750
 20
1244.279
  0
VERTEX
  8
DESIGN_ROAD_TRIMMED
 62
1
 10
10.750
 20
1244.279
  0
VERTEX
  8
DESIGN_ROAD_TRIMMED
 62
1
 10
10.750
 20
1244.129
  0
VERTEX
  8
DESIGN_ROAD_TRIMMED
 62
1
 10
17.434
 20
1243.962
  0
VERTEX
  8
DESIGN_ROAD_TRIMMED
 62
1
 10
17.118
 20
1244.120
  0
VERTEX
  8
DESIGN_ROAD_TRIMMED
 62
1
 10
17.118
 20
1244.120
  0
VERTEX
  8
DESIGN_ROAD_TRIMMED
 62
1
 10
16.802
 20
1244.278
  0
VERTEX
  8
DESIGN_ROAD_TRIMMED
 62
1
 10
16.802
 20
1244.278
  0
VERTEX
  8
DESIGN_ROAD_TRIMMED
 62
1
 10
16.486
 20
1244.436
  0
VERTEX
  8
DESIGN_ROAD_TRIMMED
 62
1
 10
16.486
 20
1244.436
  0
VERTEX
  8
DESIGN_ROAD_TRIMMED
 62
1
 10
16.171
 20
1244.593
  0
VERTEX
  8
DESIGN_ROAD_TRIMMED
 62
1
 10
16.171
 20
1244.593
  0
VERTEX
  8
DESIGN_ROAD_TRIMMED
 62
1
 10
15.855
 20
1244.751
  0
VERTEX
  8
DESIGN_ROAD_TRIMMED
 62
1
 10
15.855
 20
1244.751
  0
VERTEX
  8
DESIGN_ROAD_TRIMMED
 62
1
 10
15.750
 20
1244.804
  0
VERTEX
  8
DESIGN_ROAD_TRIMMED
 62
1
 10
15.750
 20
1244.804
  0
VERTEX
  8
DESIGN_ROAD_TRIMMED
 62
1
 10
20.085
 20
1242.636
  0
SEQEND
  8
DESIGN_ROAD_TRIMMED
  0
POLYLINE
  8
NATURAL_GROUND
 62
3
 66
  1
  0
VERTEX
  8
NATURAL_GROUND
 62
3
 10
-5.537
 20
1242.882
  0
VERTEX
  8
NATURAL_GROUND
 62
3
 10
-1.977
 20
1242.853
  0
VERTEX
  8
NATURAL_GROUND
 62
3
 10
2.407
 20
1243.024
  0
VERTEX
  8
NATURAL_GROUND
 62
3
 10
3.223
 20
1243.298
  0
VERTEX
  8
NATURAL_GROUND
 62
3
 10
6.109
 20
1243.254
  0
VERTEX
  8
NATURAL_GROUND
 62
3
 10
7.503
 20
1243.457
  0
VERTEX
  8
NATURAL_GROUND
 62
3
 10
10.724
 20
1243.682
  0
VERTEX
  8
NATURAL_GROUND
 62
3
 10
13.972
 20
1243.549
  0
VERTEX
  8
NATURAL_GROUND
 62
3
 10
15.649
 20
1243.384
  0
VERTEX
  8
NATURAL_GROUND
 62
3
 10
16.181
 20
1243.183
  0
VERTEX
  8
NATURAL_GROUND
 62
3
 10
18.265
 20
1243.718
  0
VERTEX
  8
NATURAL_GROUND
 62
3
 10
19.966
 20
1243.677
  0
VERTEX
  8
NATURAL_GROUND
 62
3
 10
22.741
 20
1243.144
  0
VERTEX
  8
NATURAL_GROUND
 62
3
 10
25.202
 20
1243.741
  0
VERTEX
  8
NATURAL_GROUND
 62
3
 10
27.758
 20
1243.974
  0
SEQEND
  8
NATURAL_GROUND
  0
POLYLINE
  8
CLEAR_GROUND
 62
8
 66
  1
  0
VERTEX
  8
CLEAR_GROUND
 62
8
 10
-13.545
 20
1241.946
  0
VERTEX
  8
CLEAR_GROUND
 62
8
 10
-1.961
 20
1241.853
  0
VERTEX
  8
CLEAR_GROUND
 62
8
 10
2.589
 20
1242.030
  0
VERTEX
  8
CLEAR_GROUND
 62
8
 10
3.379
 20
1242.295
  0
VERTEX
  8
CLEAR_GROUND
 62
8
 10
6.174
 20
1242.253
  0
VERTEX
  8
CLEAR_GROUND
 62
8
 10
7.610
 20
1242.462
  0
VERTEX
  8
CLEAR_GROUND
 62
8
 10
10.739
 20
1242.681
  0
VERTEX
  8
CLEAR_GROUND
 62
8
 10
13.902
 20
1242.551
  0
VERTEX
  8
CLEAR_GROUND
 62
8
 10
15.420
 20
1242.401
  0
VERTEX
  8
CLEAR_GROUND
 62
8
 10
16.124
 20
1242.136
  0
VERTEX
  8
CLEAR_GROUND
 62
8
 10
18.380
 20
1242.715
  0
VERTEX
  8
CLEAR_GROUND
 62
8
 10
19.859
 20
1242.680
  0
VERTEX
  8
CLEAR_GROUND
 62
8
 10
22.766
 20
1242.121
  0
VERTEX
  8
CLEAR_GROUND
 62
8
 10
25.366
 20
1242.752
  0
VERTEX
  8
CLEAR_GROUND
 62
8
 10
35.816
 20
1243.703
  0
SEQEND
  8
CLEAR_GROUND
  0
POLYLINE
  8
FINISHED_ROAD
 62
2
 66
  1
  0
VERTEX
  8
FINISHED_ROAD
 62
2
 10
5.750
 20
1244.804
  0
VERTEX
  8
FINISHED_ROAD
 62
2
 10
5.750
 20
1244.804
  0
VERTEX
  8
FINISHED_ROAD
 62
2
 10
10.750
 20
1244.929
  0
VERTEX
  8
FINISHED_ROAD
 62
2
 10
15.750
 20
1244.804
  0
VERTEX
  8
FINISHED_ROAD
 62
2
 10
15.750
 20
1244.804
  0
SEQEND
  8
FINISHED_ROAD
  0
POLYLINE
  8
STRUCTURE_LEFT
 62
4
 66
  1
  0
VERTEX
  8
STRUCTURE_LEFT
 62
4
 10
5.750
 20
1244.804
  0
VERTEX
  8
STRUCTURE_LEFT
 62
4
 10
5.644
 20
1244.751
  0
VERTEX
  8
STRUCTURE_LEFT
 62
4
 10
5.644
 20
1244.751
  0
VERTEX
  8
STRUCTURE_LEFT
 62
4
 10
5.328
 20
1244.593
  0
VERTEX
  8
STRUCTURE_LEFT
 62
4
 10
5.328
 20
1244.593
  0
VERTEX
  8
STRUCTURE_LEFT
 62
4
 10
5.013
 20
1244.436
  0
VERTEX
  8
STRUCTURE_LEFT
 62
4
 10
5.013
 20
1244.436
  0
VERTEX
  8
STRUCTURE_LEFT
 62
4
 10
4.697
 20
1244.278
  0
VERTEX
  8
STRUCTURE_LEFT
 62
4
 10
4.697
 20
1244.278
  0
VERTEX
  8
STRUCTURE_LEFT
 62
4
 10
4.381
 20
1244.120
  0
VERTEX
  8
STRUCTURE_LEFT
 62
4
 10
4.381
 20
1244.120
  0
VERTEX
  8
STRUCTURE_LEFT
 62
4
 10
4.065
 20
1243.962
  0
VERTEX
  8
STRUCTURE_LEFT
 62
4
 10
10.750
 20
1244.129
  0
VERTEX
  8
STRUCTURE_LEFT
 62
4
 10
10.750
 20
1244.279
  0
VERTEX
  8
STRUCTURE_LEFT
 62
4
 10
10.750
 20
1244.279
  0
VERTEX
  8
STRUCTURE_LEFT
 62
4
 10
10.750
 20
1244.429
  0
VERTEX
  8
STRUCTURE_LEFT
 62
4
 10
10.750
 20
1244.429
  0
VERTEX
  8
STRUCTURE_LEFT
 62
4
 10
10.750
 20
1244.579
  0
VERTEX
  8
STRUCTURE_LEFT
 62
4
 10
10.750
 20
1244.579
  0
VERTEX
  8
STRUCTURE_LEFT
 62
4
 10
10.750
 20
1244.729
  0
VERTEX
  8
STRUCTURE_LEFT
 62
4
 10
10.750
 20
1244.729
  0
VERTEX
  8
STRUCTURE_LEFT
 62
4
 10
10.750
 20
1244.879
  0
VERTEX
  8
STRUCTURE_LEFT
 62
4
 10
10.750
 20
1244.879
  0
VERTEX
  8
STRUCTURE_LEFT
 62
4
 10
10.750
 20
1244.929
  0
VERTEX
  8
STRUCTURE_LEFT
 62
4
 10
10.750
 20
1244.929
  0
SEQEND
  8
STRUCTURE_LEFT
  0
POLYLINE
  8
STRUCTURE_RIGHT
 62
6
 66
  1
  0
VERTEX
  8
STRUCTURE_RIGHT
 62
6
 10
10.750
 20
1244.929
  0
VERTEX
  8
STRUCTURE_RIGHT
 62
6
 10
10.750
 20
1244.929
  0
VERTEX
  8
STRUCTURE_RIGHT
 62
6
 10
10.750
 20
1244.879
  0
VERTEX
  8
STRUCTURE_RIGHT
 62
6
 10
10.750
 20
1244.879
  0
VERTEX
  8
STRUCTURE_RIGHT
 62
6
 10
10.750
 20
1244.729
  0
VERTEX
  8
STRUCTURE_RIGHT
 62
6
 10
10.750
 20
1244.729
  0
VERTEX
  8
STRUCTURE_RIGHT
 62
6
 10
10.750
 20
1244.579
  0
VERTEX
  8
STRUCTURE_RIGHT
 62
6
 10
10.750
 20
1244.579
  0
VERTEX
  8
STRUCTURE_RIGHT
 62
6
 10
10.750
 20
1244.429
  0
VERTEX
  8
STRUCTURE_RIGHT
 62
6
 10
10.750
 20
1244.429
  0
VERTEX
  8
STRUCTURE_RIGHT
 62
6
 10
10.750
 20
1244.279
  0
VERTEX
  8
STRUCTURE_RIGHT
 62
6
 10
10.750
 20
1244.279
  0
VERTEX
  8
STRUCTURE_RIGHT
 62
6
 10
10.750
 20
1244.129
  0
VERTEX
  8
STRUCTURE_RIGHT
 62
6
 10
17.434
 20
1243.962
  0
VERTEX
  8
STRUCTURE_RIGHT
 62
6
 10
17.118
 20
1244.120
  0
VERTEX
  8
STRUCTURE_RIGHT
 62
6
 10
17.118
 20
1244.120
  0
VERTEX
  8
STRUCTURE_RIGHT
 62
6
 10
16.802
 20
1244.278
  0
VERTEX
  8
STRUCTURE_RIGHT
 62
6
 10
16.802
 20
1244.278
  0
VERTEX
  8
STRUCTURE_RIGHT
 62
6
 10
16.486
 20
1244.436
  0
VERTEX
  8
STRUCTURE_RIGHT
 62
6
 10
16.486
 20
1244.436
  0
VERTEX
  8
STRUCTURE_RIGHT
 62
6
 10
16.171
 20
1244.593
  0
VERTEX
  8
STRUCTURE_RIGHT
 62
6
 10
16.171
 20
1244.593
  0
VERTEX
  8
STRUCTURE_RIGHT
 62
6
 10
15.855
 20
1244.751
  0
VERTEX
  8
STRUCTURE_RIGHT
 62
6
 10
15.855
 20
1244.751
  0
VERTEX
  8
STRUCTURE_RIGHT
 62
6
 10
15.750
 20
1244.804
  0
SEQEND
  8
STRUCTURE_RIGHT
  0
POLYLINE
  8
LAYER_0
 62
4
 66
  1
  0
VERTEX
  8
LAYER_0
 62
4
 10
5.750
 20
1244.804
  0
VERTEX
  8
LAYER_0
 62
4
 10
5.644
 20
1244.751
  0
VERTEX
  8
LAYER_0
 62
4
 10
10.750
 20
1244.879
  0
VERTEX
  8
LAYER_0
 62
4
 10
10.750
 20
1244.929
  0
SEQEND
  8
LAYER_0
  0
POLYLINE
  8
LAYER_1
 62
4
 66
  1
  0
VERTEX
  8
LAYER_1
 62
4
 10
5.644
 20
1244.751
  0
VERTEX
  8
LAYER_1
 62
4
 10
5.328
 20
1244.593
  0
VERTEX
  8
LAYER_1
 62
4
 10
10.750
 20
1244.729
  0
VERTEX
  8
LAYER_1
 62
4
 10
10.750
 20
1244.879
  0
SEQEND
  8
LAYER_1
  0
POLYLINE
  8
LAYER_2
 62
4
 66
  1
  0
VERTEX
  8
LAYER_2
 62
4
 10
5.328
 20
1244.593
  0
VERTEX
  8
LAYER_2
 62
4
 10
5.013
 20
1244.436
  0
VERTEX
  8
LAYER_2
 62
4
 10
10.750
 20
1244.579
  0
VERTEX
  8
LAYER_2
 62
4
 10
10.750
 20
1244.729
  0
SEQEND
  8
LAYER_2
  0
POLYLINE
  8
LAYER_3
 62
4
 66
  1
  0
VERTEX
  8
LAYER_3
 62
4
 10
5.013
 20
1244.436
  0
VERTEX
  8
LAYER_3
 62
4
 10
4.697
 20
1244.278
  0
VERTEX
  8
LAYER_3
 62
4
 10
10.750
 20
1244.429
  0
VERTEX
  8
LAYER_3
 62
4
 10
10.750
 20
1244.579
  0
SEQEND
  8
LAYER_3
  0
POLYLINE
  8
LAYER_4
 62
4
 66
  1
  0
VERTEX
  8
LAYER_4
 62
4
 10
4.697
 20
1244.278
  0
VERTEX
  8
LAYER_4
 62
4
 10
4.381
 20
1244.120
  0
VERTEX
  8
LAYER_4
 62
4
 10
10.750
 20
1244.279
  0
VERTEX
  8
LAYER_4
 62
4
 10
10.750
 20
1244.429
  0
SEQEND
  8
LAYER_4
  0
POLYLINE
  8
LAYER_5
 62
4
 66
  1
  0
VERTEX
  8
LAYER_5
 62
4
 10
4.381
 20
1244.120
  0
VERTEX
  8
LAYER_5
 62
4
 10
4.065
 20
1243.962
  0
VERTEX
  8
LAYER_5
 62
4
 10
10.750
 20
1244.129
  0
VERTEX
  8
LAYER_5
 62
4
 10
10.750
 20
1244.279
  0
SEQEND
  8
LAYER_5
  0
POLYLINE
  8
LAYER_6
 62
6
 66
  1
  0
VERTEX
  8
LAYER_6
 62
6
 10
15.750
 20
1244.804
  0
VERTEX
  8
LAYER_6
 62
6
 10
15.855
 20
1244.751
  0
VERTEX
  8
LAYER_6
 62
6
 10
10.750
 20
1244.879
  0
VERTEX
  8
LAYER_6
 62
6
 10
10.750
 20
1244.929
  0
SEQEND
  8
LAYER_6
  0
POLYLINE
  8
LAYER_7
 62
6
 66
  1
  0
VERTEX
  8
LAYER_7
 62
6
 10
15.855
 20
1244.751
  0
VERTEX
  8
LAYER_7
 62
6
 10
16.171
 20
1244.593
  0
VERTEX
  8
LAYER_7
 62
6
 10
10.750
 20
1244.729
  0
VERTEX
  8
LAYER_7
 62
6
 10
10.750
 20
1244.879
  0
SEQEND
  8
LAYER_7
  0
POLYLINE
  8
LAYER_8
 62
6
 66
  1
  0
VERTEX
  8
LAYER_8
 62
6
 10
16.171
 20
1244.593
  0
VERTEX
  8
LAYER_8
 62
6
 10
16.486
 20
1244.436
  0
VERTEX
  8
LAYER_8
 62
6
 10
10.750
 20
1244.579
  0
VERTEX
  8
LAYER_8
 62
6
 10
10.750
 20
1244.729
  0
SEQEND
  8
LAYER_8
  0
POLYLINE
  8
LAYER_9
 62
6
 66
  1
  0
VERTEX
  8
LAYER_9
 62
6
 10
16.486
 20
1244.436
  0
VERTEX
  8
LAYER_9
 62
6
 10
16.802
 20
1244.278
  0
VERTEX
  8
LAYER_9
 62
6
 10
10.750
 20
1244.429
  0
VERTEX
  8
LAYER_9
 62
6
 10
10.750
 20
1244.579
  0
SEQEND
  8
LAYER_9
  0
POLYLINE
  8
LAYER_10
 62
6
 66
  1
  0
VERTEX
  8
LAYER_10
 62
6
 10
16.802
 20
1244.278
  0
VERTEX
  8
LAYER_10
 62
6
 10
17.118
 20
1244.120
  0
VERTEX
  8
LAYER_10
 62
6
 10
10.750
 20
1244.279
  0
VERTEX
  8
LAYER_10
 62
6
 10
10.750
 20
1244.429
  0
SEQEND
  8
LAYER_10
  0
POLYLINE
  8
LAYER_11
 62
6
 66
  1
  0
VERTEX
  8
LAYER_11
 62
6
 10
17.118
 20
1244.120
  0
VERTEX
  8
LAYER_11
 62
6
 10
17.434
 20
1243.962
  0
VERTEX
  8
LAYER_11
 62
6
 10
10.750
 20
1244.129
  0
VERTEX
  8
LAYER_11
 62
6
 10
10.750
 20
1244.279
  0
SEQEND
  8
LAYER_11
  0
POLYLINE
  8
A4_BORDER
 62
7
 66
  1
  0
VERTEX
  8
A4_BORDER
 62
7
 10
-4.100
 20
1233.079
  0
VERTEX
  8
A4_BORDER
 62
7
 10
25.600
 20
1233.079
  0
VERTEX
  8
A4_BORDER
 62
7
 10
25.600
 20
1254.079
  0
VERTEX
  8
A4_BORDER
 62
7
 10
-4.100
 20
1254.079
  0
VERTEX
  8
A4_BORDER
 62
7
 10
-4.100
 20
1233.079
  0
SEQEND
  8
A4_BORDER
  0
TEXT
  8
STATION_TITLE
 10
10.750
 20
1240.579
 40
0.360
 50
0.000
  1
K100+500
 72
  1
 11
10.750
 21
1240.579
  0
TEXT
  8
POINT_TEXT_H
 10
10.750
 20
1245.289
 40
0.300
 50
90.000
  1
1244.929
  0
TEXT
  8
LEFT_TEXT_H
 10
5.750
 20
1245.164
 40
0.300
 50
90.000
  1
1244.804
  0
TEXT
  8
RIGHT_TEXT_H
 10
15.750
 20
1245.164
 40
0.300
 50
90.000
  1
1244.804
  0
TEXT
  8
SLOPE_TEXT
 10
8.250
 20
1245.107
 40
0.300
 50
0.000
  1
-2.50%
 72
  1
 11
8.250
 21
1245.107
  0
TEXT
  8
SLOPE_TEXT
 10
13.250
 20
1245.107
 40
0.300
 50
0.000
  1
-2.50%
 72
  1
 11
13.250
 21
1245.107
  0
TEXT
  8
SLOPE_TEXT
 10
2.794
 20
1243.528
 40
0.300
 50
26.565
  1
1:2.00
 72
  1
 73
  1
 11
2.794
 21
1243.528
  0
TEXT
  8
SLOPE_TEXT
 10
17.998
 20
1243.881
 40
0.300
 50
-26.565
  1
1:2.00
 72
  1
 73
  1
 11
17.998
 21
1243.881
  0
TEXT
  8
INFO_TEXT
 10
9.400
 20
1239.979
 40
0.30
  1
AT:26.494
  0
TEXT
  8
INFO_TEXT
 10
9.400
 20
1239.529
 40
0.30
  1
AW:0.000
  0
TEXT
  8
INFO_TEXT
 10
9.400
 20
1239.079
 40
0.30
  1
Topsoil:20.281
  0
TEXT
  8
INFO_TEXT
 10
9.400
 20
1238.629
 40
0.30
  1
L:top:0.253
  0
TEXT
  8
INFO_TEXT
 10
9.400
 20
1238.179
 40
0.30
  1
L:CRR:0.789
  0
TEXT
  8
INFO_TEXT
 10
9.400
 20
1237.729
 40
0.30
  1
L:C1:0.837
  0
TEXT
  8
INFO_TEXT
 10
9.400
 20
1237.279
 40
0.30
  1
L:C2:0.884
  0
TEXT
  8
INFO_TEXT
 10
9.400
 20
1236.829
 40
0.30
  1
L:G15:0.932
  0
TEXT
  8
INFO_TEXT
 10
9.400
 20
1236.379
 40
0.30
  1
L:G7:0.979
  0
TEXT
  8
INFO_TEXT
 10
9.400
 20
1235.929
 40
0.30
  1
R:top:0.253
  0
TEXT
  8
INFO_TEXT
 10
9.400
 20
1235.479
 40
0.30
  1
R:CRR:0.789
  0
TEXT
  8
INFO_TEXT
 10
9.400
 20
1235.029
 40
0.30
  1
R:C1:0.837
  0
TEXT
  8
INFO_TEXT
 10
9.400
 20
1234.579
 40
0.30
  1
R:C2:0.884
  0
TEXT
  8
INFO_TEXT
 10
9.400
 20
1234.129
 40
0.30
  1
R:G15:0.932
  0
TEXT
  8
INFO_TEXT
 10
9.400
 20
1233.679
 40
0.30
  1
R:G17:0.979
  0
POLYLINE
  8
DESIGN_ROAD_TRIMMED
 62
1
 66
  1
  0
VERTEX
  8
DESIGN_ROAD_TRIMMED
 62
1
 10
59.700
 20
1242.459
  0
VERTEX
  8
DESIGN_ROAD_TRIMMED
 62
1
 10
65.113
 20
1245.166
  0
VERTEX
  8
DESIGN_ROAD_TRIMMED
 62
1
 10
65.113
 20
1245.166
  0
VERTEX
  8
DESIGN_ROAD_TRIMMED
 62
1
 10
65.008
 20
1245.113
  0
VERTEX
  8
DESIGN_ROAD_TRIMMED
 62
1
 10
65.008
 20
1245.113
  0
VERTEX
  8
DESIGN_ROAD_TRIMMED
 62
1
 10
64.692
 20
1244.955
  0
VERTEX
  8
DESIGN_ROAD_TRIMMED
 62
1
 10
64.692
 20
1244.955
  0
VERTEX
  8
DESIGN_ROAD_TRIMMED
 62
1
 10
64.377
 20
1244.798
  0
VERTEX
  8
DESIGN_ROAD_TRIMMED
 62
1
 10
64.377
 20
1244.798
  0
VERTEX
  8
DESIGN_ROAD_TRIMMED
 62
1
 10
64.061
 20
1244.640
  0
VERTEX
  8
DESIGN_ROAD_TRIMMED
 62
1
 10
64.061
 20
1244.640
  0
VERTEX
  8
DESIGN_ROAD_TRIMMED
 62
1
 10
63.745
 20
1244.482
  0
VERTEX
  8
DESIGN_ROAD_TRIMMED
 62
1
 10
63.745
 20
1244.482
  0
VERTEX
  8
DESIGN_ROAD_TRIMMED
 62
1
 10
63.429
 20
1244.324
  0
VERTEX
  8
DESIGN_ROAD_TRIMMED
 62
1
 10
70.113
 20
1244.491
  0
VERTEX
  8
DESIGN_ROAD_TRIMMED
 62
1
 10
70.113
 20
1244.641
  0
VERTEX
  8
DESIGN_ROAD_TRIMMED
 62
1
 10
70.113
 20
1244.641
  0
VERTEX
  8
DESIGN_ROAD_TRIMMED
 62
1
 10
70.113
 20
1244.791
  0
VERTEX
  8
DESIGN_ROAD_TRIMMED
 62
1
 10
70.113
 20
1244.791
  0
VERTEX
  8
DESIGN_ROAD_TRIMMED
 62
1
 10
70.113
 20
1244.941
  0
VERTEX
  8
DESIGN_ROAD_TRIMMED
 62
1
 10
70.113
 20
1244.941
  0
VERTEX
  8
DESIGN_ROAD_TRIMMED
 62
1
 10
70.113
 20
1245.091
  0
VERTEX
  8
DESIGN_ROAD_TRIMMED
 62
1
 10
70.113
 20
1245.091
  0
VERTEX
  8
DESIGN_ROAD_TRIMMED
 62
1
 10
70.113
 20
1245.241
  0
VERTEX
  8
DESIGN_ROAD_TRIMMED
 62
1
 10
70.113
 20
1245.241
  0
VERTEX
  8
DESIGN_ROAD_TRIMMED
 62
1
 10
70.113
 20
1245.291
  0
VERTEX
  8
DESIGN_ROAD_TRIMMED
 62
1
 10
70.113
 20
1245.291
  0
VERTEX
  8
DESIGN_ROAD_TRIMMED
 62
1
 10
70.113
 20
1245.291
  0
VERTEX
  8
DESIGN_ROAD_TRIMMED
 62
1
 10
70.113
 20
1245.291
  0
VERTEX
  8
DESIGN_ROAD_TRIMMED
 62
1
 10
70.113
 20
1245.291
  0
VERTEX
  8
DESIGN_ROAD_TRIMMED
 62
1
 10
70.113
 20
1245.241
  0
VERTEX
  8
DESIGN_ROAD_TRIMMED
 62
1
 10
70.113
 20
1245.241
  0
VERTEX
  8
DESIGN_ROAD_TRIMMED
 62
1
 10
70.113
 20
1245.091
  0
VERTEX
  8
DESIGN_ROAD_TRIMMED
 62
1
 10
70.113
 20
1245.091
  0
VERTEX
  8
DESIGN_ROAD_TRIMMED
 62
1
 10
70.113
 20
1244.941
  0
VERTEX
  8
DESIGN_ROAD_TRIMMED
 62
1
 10
70.113
 20
1244.941
  0
VERTEX
  8
DESIGN_ROAD_TRIMMED
 62
1
 10
70.113
 20
1244.791
  0
VERTEX
  8
DESIGN_ROAD_TRIMMED
 62
1
 10
70.113
 20
1244.791
  0
VERTEX
  8
DESIGN_ROAD_TRIMMED
 62
1
 10
70.113
 20
1244.641
  0
VERTEX
  8
DESIGN_ROAD_TRIMMED
 62
1
 10
70.113
 20
1244.641
  0
VERTEX
  8
DESIGN_ROAD_TRIMMED
 62
1
 10
70.113
 20
1244.491
  0
VERTEX
  8
DESIGN_ROAD_TRIMMED
 62
1
 10
76.798
 20
1244.324
  0
VERTEX
  8
DESIGN_ROAD_TRIMMED
 62
1
 10
76.482
 20
1244.482
  0
VERTEX
  8
DESIGN_ROAD_TRIMMED
 62
1
 10
76.482
 20
1244.482
  0
VERTEX
  8
DESIGN_ROAD_TRIMMED
 62
1
 10
76.166
 20
1244.640
  0
VERTEX
  8
DESIGN_ROAD_TRIMMED
 62
1
 10
76.166
 20
1244.640
  0
VERTEX
  8
DESIGN_ROAD_TRIMMED
 62
1
 10
75.850
 20
1244.798
  0
VERTEX
  8
DESIGN_ROAD_TRIMMED
 62
1
 10
75.850
 20
1244.798
  0
VERTEX
  8
DESIGN_ROAD_TRIMMED
 62
1
 10
75.534
 20
1244.955
  0
VERTEX
  8
DESIGN_ROAD_TRIMMED
 62
1
 10
75.534
 20
1244.955
  0
VERTEX
  8
DESIGN_ROAD_TRIMMED
 62
1
 10
75.219
 20
1245.113
  0
VERTEX
  8
DESIGN_ROAD_TRIMMED
 62
1
 10
75.219
 20
1245.113
  0
VERTEX
  8
DESIGN_ROAD_TRIMMED
 62
1
 10
75.113
 20
1245.166
  0
VERTEX
  8
DESIGN_ROAD_TRIMMED
 62
1
 10
75.113
 20
1245.166
  0
VERTEX
  8
DESIGN_ROAD_TRIMMED
 62
1
 10
78.206
 20
1243.620
  0
SEQEND
  8
DESIGN_ROAD_TRIMMED
  0
POLYLINE
  8
NATURAL_GROUND
 62
3
 66
  1
  0
VERTEX
  8
NATURAL_GROUND
 62
3
 10
54.106
 20
1243.373
  0
VERTEX
  8
NATURAL_GROUND
 62
3
 10
61.934
 20
1243.494
  0
VERTEX
  8
NATURAL_GROUND
 62
3
 10
63.077
 20
1243.803
  0
VERTEX
  8
NATURAL_GROUND
 62
3
 10
65.475
 20
1243.724
  0
VERTEX
  8
NATURAL_GROUND
 62
3
 10
67.121
 20
1243.955
  0
VERTEX
  8
NATURAL_GROUND
 62
3
 10
70.061
 20
1244.104
  0
VERTEX
  8
NATURAL_GROUND
 62
3
 10
73.209
 20
1244.023
  0
VERTEX
  8
NATURAL_GROUND
 62
3
 10
74.253
 20
1243.846
  0
VERTEX
  8
NATURAL_GROUND
 62
3
 10
74.964
 20
1243.734
  0
VERTEX
  8
NATURAL_GROUND
 62
3
 10
75.152
 20
1243.704
  0
VERTEX
  8
NATURAL_GROUND
 62
3
 10
75.787
 20
1243.905
  0
VERTEX
  8
NATURAL_GROUND
 62
3
 10
78.176
 20
1244.659
  0
VERTEX
  8
NATURAL_GROUND
 62
3
 10
82.047
 20
1243.713
  0
VERTEX
  8
NATURAL_GROUND
 62
3
 10
84.655
 20
1244.245
  0
VERTEX
  8
NATURAL_GROUND
 62
3
 10
86.640
 20
1244.094
  0
SEQEND
  8
NATURAL_GROUND
  0
POLYLINE
  8
CLEAR_GROUND
 62
8
 66
  1
  0
VERTEX
  8
CLEAR_GROUND
 62
8
 10
46.123
 20
1242.249
  0
VERTEX
  8
CLEAR_GROUND
 62
8
 10
62.075
 20
1242.496
  0
VERTEX
  8
CLEAR_GROUND
 62
8
 10
63.194
 20
1242.799
  0
VERTEX
  8
CLEAR_GROUND
 62
8
 10
65.529
 20
1242.722
  0
VERTEX
  8
CLEAR_GROUND
 62
8
 10
67.216
 20
1242.959
  0
VERTEX
  8
CLEAR_GROUND
 62
8
 10
70.073
 20
1243.103
  0
VERTEX
  8
CLEAR_GROUND
 62
8
 10
73.112
 20
1243.025
  0
VERTEX
  8
CLEAR_GROUND
 62
8
 10
74.091
 20
1242.859
  0
VERTEX
  8
CLEAR_GROUND
 62
8
 10
74.809
 20
1242.746
  0
VERTEX
  8
CLEAR_GROUND
 62
8
 10
75.229
 20
1242.680
  0
VERTEX
  8
CLEAR_GROUND
 62
8
 10
76.088
 20
1242.951
  0
VERTEX
  8
CLEAR_GROUND
 62
8
 10
78.210
 20
1243.621
  0
VERTEX
  8
CLEAR_GROUND
 62
8
 10
82.027
 20
1242.688
  0
VERTEX
  8
CLEAR_GROUND
 62
8
 10
84.718
 20
1243.238
  0
VERTEX
  8
CLEAR_GROUND
 62
8
 10
94.541
 20
1242.490
  0
SEQEND
  8
CLEAR_GROUND
  0
POLYLINE
  8
FINISHED_ROAD
 62
2
 66
  1
  0
VERTEX
  8
FINISHED_ROAD
 62
2
 10
65.113
 20
1245.166
  0
VERTEX
  8
FINISHED_ROAD
 62
2
 10
65.113
 20
1245.166
  0
VERTEX
  8
FINISHED_ROAD
 62
2
 10
70.113
 20
1245.291
  0
VERTEX
  8
FINISHED_ROAD
 62
2
 10
75.113
 20
1245.166
  0
VERTEX
  8
FINISHED_ROAD
 62
2
 10
75.113
 20
1245.166
  0
SEQEND
  8
FINISHED_ROAD
  0
POLYLINE
  8
STRUCTURE_LEFT
 62
4
 66
  1
  0
VERTEX
  8
STRUCTURE_LEFT
 62
4
 10
65.113
 20
1245.166
  0
VERTEX
  8
STRUCTURE_LEFT
 62
4
 10
65.008
 20
1245.113
  0
VERTEX
  8
STRUCTURE_LEFT
 62
4
 10
65.008
 20
1245.113
  0
VERTEX
  8
STRUCTURE_LEFT
 62
4
 10
64.692
 20
1244.955
  0
VERTEX
  8
STRUCTURE_LEFT
 62
4
 10
64.692
 20
1244.955
  0
VERTEX
  8
STRUCTURE_LEFT
 62
4
 10
64.377
 20
1244.798
  0
VERTEX
  8
STRUCTURE_LEFT
 62
4
 10
64.377
 20
1244.798
  0
VERTEX
  8
STRUCTURE_LEFT
 62
4
 10
64.061
 20
1244.640
  0
VERTEX
  8
STRUCTURE_LEFT
 62
4
 10
64.061
 20
1244.640
  0
VERTEX
  8
STRUCTURE_LEFT
 62
4
 10
63.745
 20
1244.482
  0
VERTEX
  8
STRUCTURE_LEFT
 62
4
 10
63.745
 20
1244.482
  0
VERTEX
  8
STRUCTURE_LEFT
 62
4
 10
63.429
 20
1244.324
  0
VERTEX
  8
STRUCTURE_LEFT
 62
4
 10
70.113
 20
1244.491
  0
VERTEX
  8
STRUCTURE_LEFT
 62
4
 10
70.113
 20
1244.641
  0
VERTEX
  8
STRUCTURE_LEFT
 62
4
 10
70.113
 20
1244.641
  0
VERTEX
  8
STRUCTURE_LEFT
 62
4
 10
70.113
 20
1244.791
  0
VERTEX
  8
STRUCTURE_LEFT
 62
4
 10
70.113
 20
1244.791
  0
VERTEX
  8
STRUCTURE_LEFT
 62
4
 10
70.113
 20
1244.941
  0
VERTEX
  8
STRUCTURE_LEFT
 62
4
 10
70.113
 20
1244.941
  0
VERTEX
  8
STRUCTURE_LEFT
 62
4
 10
70.113
 20
1245.091
  0
VERTEX
  8
STRUCTURE_LEFT
 62
4
 10
70.113
 20
1245.091
  0
VERTEX
  8
STRUCTURE_LEFT
 62
4
 10
70.113
 20
1245.241
  0
VERTEX
  8
STRUCTURE_LEFT
 62
4
 10
70.113
 20
1245.241
  0
VERTEX
  8
STRUCTURE_LEFT
 62
4
 10
70.113
 20
1245.291
  0
VERTEX
  8
STRUCTURE_LEFT
 62
4
 10
70.113
 20
1245.291
  0
SEQEND
  8
STRUCTURE_LEFT
  0
POLYLINE
  8
STRUCTURE_RIGHT
 62
6
 66
  1
  0
VERTEX
  8
STRUCTURE_RIGHT
 62
6
 10
70.113
 20
1245.291
  0
VERTEX
  8
STRUCTURE_RIGHT
 62
6
 10
70.113
 20
1245.291
  0
VERTEX
  8
STRUCTURE_RIGHT
 62
6
 10
70.113
 20
1245.241
  0
VERTEX
  8
STRUCTURE_RIGHT
 62
6
 10
70.113
 20
1245.241
  0
VERTEX
  8
STRUCTURE_RIGHT
 62
6
 10
70.113
 20
1245.091
  0
VERTEX
  8
STRUCTURE_RIGHT
 62
6
 10
70.113
 20
1245.091
  0
VERTEX
  8
STRUCTURE_RIGHT
 62
6
 10
70.113
 20
1244.941
  0
VERTEX
  8
STRUCTURE_RIGHT
 62
6
 10
70.113
 20
1244.941
  0
VERTEX
  8
STRUCTURE_RIGHT
 62
6
 10
70.113
 20
1244.791
  0
VERTEX
  8
STRUCTURE_RIGHT
 62
6
 10
70.113
 20
1244.791
  0
VERTEX
  8
STRUCTURE_RIGHT
 62
6
 10
70.113
 20
1244.641
  0
VERTEX
  8
STRUCTURE_RIGHT
 62
6
 10
70.113
 20
1244.641
  0
VERTEX
  8
STRUCTURE_RIGHT
 62
6
 10
70.113
 20
1244.491
  0
VERTEX
  8
STRUCTURE_RIGHT
 62
6
 10
76.798
 20
1244.324
  0
VERTEX
  8
STRUCTURE_RIGHT
 62
6
 10
76.482
 20
1244.482
  0
VERTEX
  8
STRUCTURE_RIGHT
 62
6
 10
76.482
 20
1244.482
  0
VERTEX
  8
STRUCTURE_RIGHT
 62
6
 10
76.166
 20
1244.640
  0
VERTEX
  8
STRUCTURE_RIGHT
 62
6
 10
76.166
 20
1244.640
  0
VERTEX
  8
STRUCTURE_RIGHT
 62
6
 10
75.850
 20
1244.798
  0
VERTEX
  8
STRUCTURE_RIGHT
 62
6
 10
75.850
 20
1244.798
  0
VERTEX
  8
STRUCTURE_RIGHT
 62
6
 10
75.534
 20
1244.955
  0
VERTEX
  8
STRUCTURE_RIGHT
 62
6
 10
75.534
 20
1244.955
  0
VERTEX
  8
STRUCTURE_RIGHT
 62
6
 10
75.219
 20
1245.113
  0
VERTEX
  8
STRUCTURE_RIGHT
 62
6
 10
75.219
 20
1245.113
  0
VERTEX
  8
STRUCTURE_RIGHT
 62
6
 10
75.113
 20
1245.166
  0
SEQEND
  8
STRUCTURE_RIGHT
  0
POLYLINE
  8
LAYER_0
 62
4
 66
  1
  0
VERTEX
  8
LAYER_0
 62
4
 10
65.113
 20
1245.166
  0
VERTEX
  8
LAYER_0
 62
4
 10
65.008
 20
1245.113
  0
VERTEX
  8
LAYER_0
 62
4
 10
70.113
 20
1245.241
  0
VERTEX
  8
LAYER_0
 62
4
 10
70.113
 20
1245.291
  0
SEQEND
  8
LAYER_0
  0
POLYLINE
  8
LAYER_1
 62
4
 66
  1
  0
VERTEX
  8
LAYER_1
 62
4
 10
65.008
 20
1245.113
  0
VERTEX
  8
LAYER_1
 62
4
 10
64.692
 20
1244.955
  0
VERTEX
  8
LAYER_1
 62
4
 10
70.113
 20
1245.091
  0
VERTEX
  8
LAYER_1
 62
4
 10
70.113
 20
1245.241
  0
SEQEND
  8
LAYER_1
  0
POLYLINE
  8
LAYER_2
 62
4
 66
  1
  0
VERTEX
  8
LAYER_2
 62
4
 10
64.692
 20
1244.955
  0
VERTEX
  8
LAYER_2
 62
4
 10
64.377
 20
1244.798
  0
VERTEX
  8
LAYER_2
 62
4
 10
70.113
 20
1244.941
  0
VERTEX
  8
LAYER_2
 62
4
 10
70.113
 20
1245.091
  0
SEQEND
  8
LAYER_2
  0
POLYLINE
  8
LAYER_3
 62
4
 66
  1
  0
VERTEX
  8
LAYER_3
 62
4
 10
64.377
 20
1244.798
  0
VERTEX
  8
LAYER_3
 62
4
 10
64.061
 20
1244.640
  0
VERTEX
  8
LAYER_3
 62
4
 10
70.113
 20
1244.791
  0
VERTEX
  8
LAYER_3
 62
4
 10
70.113
 20
1244.941
  0
SEQEND
  8
LAYER_3
  0
POLYLINE
  8
LAYER_4
 62
4
 66
  1
  0
VERTEX
  8
LAYER_4
 62
4
 10
64.061
 20
1244.640
  0
VERTEX
  8
LAYER_4
 62
4
 10
63.745
 20
1244.482
  0
VERTEX
  8
LAYER_4
 62
4
 10
70.113
 20
1244.641
  0
VERTEX
  8
LAYER_4
 62
4
 10
70.113
 20
1244.791
  0
SEQEND
  8
LAYER_4
  0
POLYLINE
  8
LAYER_5
 62
4
 66
  1
  0
VERTEX
  8
LAYER_5
 62
4
 10
63.745
 20
1244.482
  0
VERTEX
  8
LAYER_5
 62
4
 10
63.429
 20
1244.324
  0
VERTEX
  8
LAYER_5
 62
4
 10
70.113
 20
1244.491
  0
VERTEX
  8
LAYER_5
 62
4
 10
70.113
 20
1244.641
  0
SEQEND
  8
LAYER_5
  0
POLYLINE
  8
LAYER_6
 62
6
 66
  1
  0
VERTEX
  8
LAYER_6
 62
6
 10
75.113
 20
1245.166
  0
VERTEX
  8
LAYER_6
 62
6
 10
75.219
 20
1245.113
  0
VERTEX
  8
LAYER_6
 62
6
 10
70.113
 20
1245.241
  0
VERTEX
  8
LAYER_6
 62
6
 10
70.113
 20
1245.291
  0
SEQEND
  8
LAYER_6
  0
POLYLINE
  8
LAYER_7
 62
6
 66
  1
  0
VERTEX
  8
LAYER_7
 62
6
 10
75.219
 20
1245.113
  0
VERTEX
  8
LAYER_7
 62
6
 10
75.534
 20
1244.955
  0
VERTEX
  8
LAYER_7
 62
6
 10
70.113
 20
1245.091
  0
VERTEX
  8
LAYER_7
 62
6
 10
70.113
 20
1245.241
  0
SEQEND
  8
LAYER_7
  0
POLYLINE
  8
LAYER_8
 62
6
 66
  1
  0
VERTEX
  8
LAYER_8
 62
6
 10
75.534
 20
1244.955
  0
VERTEX
  8
LAYER_8
 62
6
 10
75.850
 20
1244.798
  0
VERTEX
  8
LAYER_8
 62
6
 10
70.113
 20
1244.941
  0
VERTEX
  8
LAYER_8
 62
6
 10
70.113
 20
1245.091
  0
SEQEND
  8
LAYER_8
  0
POLYLINE
  8
LAYER_9
 62
6
 66
  1
  0
VERTEX
  8
LAYER_9
 62
6
 10
75.850
 20
1244.798
  0
VERTEX
  8
LAYER_9
 62
6
 10
76.166
 20
1244.640
  0
VERTEX
  8
LAYER_9
 62
6
 10
70.113
 20
1244.791
  0
VERTEX
  8
LAYER_9
 62
6
 10
70.113
 20
1244.941
  0
SEQEND
  8
LAYER_9
  0
POLYLINE
  8
LAYER_10
 62
6
 66
  1
  0
VERTEX
  8
LAYER_10
 62
6
 10
76.166
 20
1244.640
  0
VERTEX
  8
LAYER_10
 62
6
 10
76.482
 20
1244.482
  0
VERTEX
  8
LAYER_10
 62
6
 10
70.113
 20
1244.641
  0
VERTEX
  8
LAYER_10
 62
6
 10
70.113
 20
1244.791
  0
SEQEND
  8
LAYER_10
  0
POLYLINE
  8
LAYER_11
 62
6
 66
  1
  0
VERTEX
  8
LAYER_11
 62
6
 10
76.482
 20
1244.482
  0
VERTEX
  8
LAYER_11
 62
6
 10
76.798
 20
1244.324
  0
VERTEX
  8
LAYER_11
 62
6
 10
70.113
 20
1244.491
  0
VERTEX
  8
LAYER_11
 62
6
 10
70.113
 20
1244.641
  0
SEQEND
  8
LAYER_11
  0
POLYLINE
  8
A4_BORDER
 62
7
 66
  1
  0
VERTEX
  8
A4_BORDER
 62
7
 10
55.263
 20
1233.609
  0
VERTEX
  8
A4_BORDER
 62
7
 10
84.963
 20
1233.609
  0
VERTEX
  8
A4_BORDER
 62
7
 10
84.963
 20
1254.609
  0
VERTEX
  8
A4_BORDER
 62
7
 10
55.263
 20
1254.609
  0
VERTEX
  8
A4_BORDER
 62
7
 10
55.263
 20
1233.609
  0
SEQEND
  8
A4_BORDER
  0
TEXT
  8
STATION_TITLE
 10
70.113
 20
1241.109
 40
0.360
 50
0.000
  1
K100+525
 72
  1
 11
70.113
 21
1241.109
  0
TEXT
  8
POINT_TEXT_H
 10
70.113
 20
1245.651
 40
0.300
 50
90.000
  1
1245.291
  0
TEXT
  8
LEFT_TEXT_H
 10
65.113
 20
1245.526
 40
0.300
 50
90.000
  1
1245.166
  0
TEXT
  8
RIGHT_TEXT_H
 10
75.113
 20
1245.526
 40
0.300
 50
90.000
  1
1245.166
  0
TEXT
  8
SLOPE_TEXT
 10
67.613
 20
1245.468
 40
0.300
 50
0.000
  1
-2.50%
 72
  1
 11
67.613
 21
1245.468
  0
TEXT
  8
SLOPE_TEXT
 10
72.613
 20
1245.468
 40
0.300
 50
0.000
  1
-2.50%
 72
  1
 11
72.613
 21
1245.468
  0
TEXT
  8
SLOPE_TEXT
 10
62.326
 20
1243.974
 40
0.300
 50
26.565
  1
1:2.00
 72
  1
 73
  1
 11
62.326
 21
1243.974
  0
TEXT
  8
SLOPE_TEXT
 10
76.740
 20
1244.554
 40
0.300
 50
-26.565
  1
1:2.00
 72
  1
 73
  1
 11
76.740
 21
1244.554
  0
TEXT
  8
INFO_TEXT
 10
68.763
 20
1240.509
 40
0.30
  1
AT:23.698
  0
TEXT
  8
INFO_TEXT
 10
68.763
 20
1240.059
 40
0.30
  1
AW:0.000
  0
TEXT
  8
INFO_TEXT
 10
68.763
 20
1239.609
 40
0.30
  1
Topsoil:18.742
  0
TEXT
  8
INFO_TEXT
 10
68.763
 20
1239.159
 40
0.30
  1
L:top:0.253
  0
TEXT
  8
INFO_TEXT
 10
68.763
 20
1238.709
 40
0.30
  1
L:CRR:0.789
  0
TEXT
  8
INFO_TEXT
 10
68.763
 20
1238.259
 40
0.30
  1
L:C1:0.837
  0
TEXT
  8
INFO_TEXT
 10
68.763
 20
1237.809
 40
0.30
  1
L:C2:0.884
  0
TEXT
  8
INFO_TEXT
 10
68.763
 20
1237.359
 40
0.30
  1
L:G15:0.932
  0
TEXT
  8
INFO_TEXT
 10
68.763
 20
1236.909
 40
0.30
  1
L:G7:0.979
  0
TEXT
  8
INFO_TEXT
 10
68.763
 20
1236.459
 40
0.30
  1
R:top:0.253
  0
TEXT
  8
INFO_TEXT
 10
68.763
 20
1236.009
 40
0.30
  1
R:CRR:0.789
  0
TEXT
  8
INFO_TEXT
 10
68.763
 20
1235.559
 40
0.30
  1
R:C1:0.837
  0
TEXT
  8
INFO_TEXT
 10
68.763
 20
1235.109
 40
0.30
  1
R:C2:0.884
  0
TEXT
  8
INFO_TEXT
 10
68.763
 20
1234.659
 40
0.30
  1
R:G15:0.932
  0
TEXT
  8
INFO_TEXT
 10
68.763
 20
1234.209
 40
0.30
  1
R:G17:0.979
  0
POLYLINE
  8
DESIGN_ROAD_TRIMMED
 62
1
 66
  1
  0
VERTEX
  8
DESIGN_ROAD_TRIMMED
 62
1
 10
119.400
 20
1243.168
  0
VERTEX
  8
DESIGN_ROAD_TRIMMED
 62
1
 10
124.168
 20
1245.552
  0
VERTEX
  8
DESIGN_ROAD_TRIMMED
 62
1
 10
124.168
 20
1245.552
  0
VERTEX
  8
DESIGN_ROAD_TRIMMED
 62
1
 10
124.062
 20
1245.499
  0
VERTEX
  8
DESIGN_ROAD_TRIMMED
 62
1
 10
124.062
 20
1245.499
  0
VERTEX
  8
DESIGN_ROAD_TRIMMED
 62
1
 10
123.746
 20
1245.341
  0
VERTEX
  8
DESIGN_ROAD_TRIMMED
 62
1
 10
123.746
 20
1245.341
  0
VERTEX
  8
DESIGN_ROAD_TRIMMED
 62
1
 10
123.431
 20
1245.184
  0
VERTEX
  8
DESIGN_ROAD_TRIMMED
 62
1
 10
123.431
 20
1245.184
  0
VERTEX
  8
DESIGN_ROAD_TRIMMED
 62
1
 10
123.115
 20
1245.026
  0
VERTEX
  8
DESIGN_ROAD_TRIMMED
 62
1
 10
123.115
 20
1245.026
  0
VERTEX
  8
DESIGN_ROAD_TRIMMED
 62
1
 10
122.799
 20
1244.868
  0
VERTEX
  8
DESIGN_ROAD_TRIMMED
 62
1
 10
122.799
 20
1244.868
  0
VERTEX
  8
DESIGN_ROAD_TRIMMED
 62
1
 10
122.483
 20
1244.710
  0
VERTEX
  8
DESIGN_ROAD_TRIMMED
 62
1
 10
129.168
 20
1244.877
  0
VERTEX
  8
DESIGN_ROAD_TRIMMED
 62
1
 10
129.168
 20
1245.027
  0
VERTEX
  8
DESIGN_ROAD_TRIMMED
 62
1
 10
129.168
 20
1245.027
  0
VERTEX
  8
DESIGN_ROAD_TRIMMED
 62
1
 10
129.168
 20
1245.177
  0
VERTEX
  8
DESIGN_ROAD_TRIMMED
 62
1
 10
129.168
 20
1245.177
  0
VERTEX
  8
DESIGN_ROAD_TRIMMED
 62
1
 10
129.168
 20
1245.327
  0
VERTEX
  8
DESIGN_ROAD_TRIMMED
 62
1
 10
129.168
 20
1245.327
  0
VERTEX
  8
DESIGN_ROAD_TRIMMED
 62
1
 10
129.168
 20
1245.477
  0
VERTEX
  8
DESIGN_ROAD_TRIMMED
 62
1
 10
129.168
 20
1245.477
  0
VERTEX
  8
DESIGN_ROAD_TRIMMED
 62
1
 10
129.168
 20
1245.627
  0
VERTEX
  8
DESIGN_ROAD_TRIMMED
 62
1
 10
129.168
 20
1245.627
  0
VERTEX
  8
DESIGN_ROAD_TRIMMED
 62
1
 10
129.168
 20
1245.677
  0
VERTEX
  8
DESIGN_ROAD_TRIMMED
 62
1
 10
129.168
 20
1245.677
  0
VERTEX
  8
DESIGN_ROAD_TRIMMED
 62
1
 10
129.168
 20
1245.677
  0
VERTEX
  8
DESIGN_ROAD_TRIMMED
 62
1
 10
129.168
 20
1245.677
  0
VERTEX
  8
DESIGN_ROAD_TRIMMED
 62
1
 10
129.168
 20
1245.677
  0
VERTEX
  8
DESIGN_ROAD_TRIMMED
 62
1
 10
129.168
 20
1245.627
  0
VERTEX
  8
DESIGN_ROAD_TRIMMED
 62
1
 10
129.168
 20
1245.627
  0
VERTEX
  8
DESIGN_ROAD_TRIMMED
 62
1
 10
129.168
 20
1245.477
  0
VERTEX
  8
DESIGN_ROAD_TRIMMED
 62
1
 10
129.168
 20
1245.477
  0
VERTEX
  8
DESIGN_ROAD_TRIMMED
 62
1
 10
129.168
 20
1245.327
  0
VERTEX
  8
DESIGN_ROAD_TRIMMED
 62
1
 10
129.168
 20
1245.327
  0
VERTEX
  8
DESIGN_ROAD_TRIMMED
 62
1
 10
129.168
 20
1245.177
  0
VERTEX
  8
DESIGN_ROAD_TRIMMED
 62
1
 10
129.168
 20
1245.177
  0
VERTEX
  8
DESIGN_ROAD_TRIMMED
 62
1
 10
129.168
 20
1245.027
  0
VERTEX
  8
DESIGN_ROAD_TRIMMED
 62
1
 10
129.168
 20
1245.027
  0
VERTEX
  8
DESIGN_ROAD_TRIMMED
 62
1
 10
129.168
 20
1244.877
  0
VERTEX
  8
DESIGN_ROAD_TRIMMED
 62
1
 10
135.852
 20
1244.710
  0
VERTEX
  8
DESIGN_ROAD_TRIMMED
 62
1
 10
135.536
 20
1244.868
  0
VERTEX
  8
DESIGN_ROAD_TRIMMED
 62
1
 10
135.536
 20
1244.868
  0
VERTEX
  8
DESIGN_ROAD_TRIMMED
 62
1
 10
135.220
 20
1245.026
  0
VERTEX
  8
DESIGN_ROAD_TRIMMED
 62
1
 10
135.220
 20
1245.026
  0
VERTEX
  8
DESIGN_ROAD_TRIMMED
 62
1
 10
134.904
 20
1245.184
  0
VERTEX
  8
DESIGN_ROAD_TRIMMED
 62
1
 10
134.904
 20
1245.184
  0
VERTEX
  8
DESIGN_ROAD_TRIMMED
 62
1
 10
134.589
 20
1245.341
  0
VERTEX
  8
DESIGN_ROAD_TRIMMED
 62
1
 10
134.589
 20
1245.341
  0
VERTEX
  8
DESIGN_ROAD_TRIMMED
 62
1
 10
134.273
 20
1245.499
  0
VERTEX
  8
DESIGN_ROAD_TRIMMED
 62
1
 10
134.273
 20
1245.499
  0
VERTEX
  8
DESIGN_ROAD_TRIMMED
 62
1
 10
134.168
 20
1245.552
  0
VERTEX
  8
DESIGN_ROAD_TRIMMED
 62
1
 10
134.168
 20
1245.552
  0
VERTEX
  8
DESIGN_ROAD_TRIMMED
 62
1
 10
137.843
 20
1243.714
  0
SEQEND
  8
DESIGN_ROAD_TRIMMED
  0
POLYLINE
  8
NATURAL_GROUND
 62
3
 66
  1
  0
VERTEX
  8
NATURAL_GROUND
 62
3
 10
113.160
 20
1243.909
  0
VERTEX
  8
NATURAL_GROUND
 62
3
 10
121.694
 20
1244.265
  0
VERTEX
  8
NATURAL_GROUND
 62
3
 10
124.433
 20
1244.205
  0
VERTEX
  8
NATURAL_GROUND
 62
3
 10
126.324
 20
1244.448
  0
VERTEX
  8
NATURAL_GROUND
 62
3
 10
129.229
 20
1244.673
  0
VERTEX
  8
NATURAL_GROUND
 62
3
 10
132.552
 20
1244.540
  0
VERTEX
  8
NATURAL_GROUND
 62
3
 10
133.919
 20
1244.414
  0
VERTEX
  8
NATURAL_GROUND
 62
3
 10
134.755
 20
1244.258
  0
VERTEX
  8
NATURAL_GROUND
 62
3
 10
136.358
 20
1244.534
  0
VERTEX
  8
NATURAL_GROUND
 62
3
 10
136.671
 20
1244.569
  0
VERTEX
  8
NATURAL_GROUND
 62
3
 10
138.377
 20
1244.794
  0
VERTEX
  8
NATURAL_GROUND
 62
3
 10
141.017
 20
1243.728
  0
VERTEX
  8
NATURAL_GROUND
 62
3
 10
145.617
 20
1244.466
  0
SEQEND
  8
NATURAL_GROUND
  0
POLYLINE
  8
CLEAR_GROUND
 62
8
 66
  1
  0
VERTEX
  8
CLEAR_GROUND
 62
8
 10
105.208
 20
1242.578
  0
VERTEX
  8
CLEAR_GROUND
 62
8
 10
121.704
 20
1243.264
  0
VERTEX
  8
CLEAR_GROUND
 62
8
 10
124.486
 20
1243.203
  0
VERTEX
  8
CLEAR_GROUND
 62
8
 10
126.427
 20
1243.453
  0
VERTEX
  8
CLEAR_GROUND
 62
8
 10
129.247
 20
1243.672
  0
VERTEX
  8
CLEAR_GROUND
 62
8
 10
132.486
 20
1243.542
  0
VERTEX
  8
CLEAR_GROUND
 62
8
 10
133.781
 20
1243.422
  0
VERTEX
  8
CLEAR_GROUND
 62
8
 10
134.748
 20
1243.242
  0
VERTEX
  8
CLEAR_GROUND
 62
8
 10
136.498
 20
1243.543
  0
VERTEX
  8
CLEAR_GROUND
 62
8
 10
136.792
 20
1243.576
  0
VERTEX
  8
CLEAR_GROUND
 62
8
 10
138.247
 20
1243.768
  0
VERTEX
  8
CLEAR_GROUND
 62
8
 10
140.901
 20
1242.697
  0
VERTEX
  8
CLEAR_GROUND
 62
8
 10
153.674
 20
1244.746
  0
SEQEND
  8
CLEAR_GROUND
  0
POLYLINE
  8
FINISHED_ROAD
 62
2
 66
  1
  0
VERTEX
  8
FINISHED_ROAD
 62
2
 10
124.168
 20
1245.552
  0
VERTEX
  8
FINISHED_ROAD
 62
2
 10
124.168
 20
1245.552
  0
VERTEX
  8
FINISHED_ROAD
 62
2
 10
129.168
 20
1245.677
  0
VERTEX
  8
FINISHED_ROAD
 62
2
 10
134.168
 20
1245.552
  0
VERTEX
  8
FINISHED_ROAD
 62
2
 10
134.168
 20
1245.552
  0
SEQEND
  8
FINISHED_ROAD
  0
POLYLINE
  8
STRUCTURE_LEFT
 62
4
 66
  1
  0
VERTEX
  8
STRUCTURE_LEFT
 62
4
 10
124.168
 20
1245.552
  0
VERTEX
  8
STRUCTURE_LEFT
 62
4
 10
124.062
 20
1245.499
  0
VERTEX
  8
STRUCTURE_LEFT
 62
4
 10
124.062
 20
1245.499
  0
VERTEX
  8
STRUCTURE_LEFT
 62
4
 10
123.746
 20
1245.341
  0
VERTEX
  8
STRUCTURE_LEFT
 62
4
 10
123.746
 20
1245.341
  0
VERTEX
  8
STRUCTURE_LEFT
 62
4
 10
123.431
 20
1245.184
  0
VERTEX
  8
STRUCTURE_LEFT
 62
4
 10
123.431
 20
1245.184
  0
VERTEX
  8
STRUCTURE_LEFT
 62
4
 10
123.115
 20
1245.026
  0
VERTEX
  8
STRUCTURE_LEFT
 62
4
 10
123.115
 20
1245.026
  0
VERTEX
  8
STRUCTURE_LEFT
 62
4
 10
122.799
 20
1244.868
  0
VERTEX
  8
STRUCTURE_LEFT
 62
4
 10
122.799
 20
1244.868
  0
VERTEX
  8
STRUCTURE_LEFT
 62
4
 10
122.483
 20
1244.710
  0
VERTEX
  8
STRUCTURE_LEFT
 62
4
 10
129.168
 20
1244.877
  0
VERTEX
  8
STRUCTURE_LEFT
 62
4
 10
129.168
 20
1245.027
  0
VERTEX
  8
STRUCTURE_LEFT
 62
4
 10
129.168
 20
1245.027
  0
VERTEX
  8
STRUCTURE_LEFT
 62
4
 10
129.168
 20
1245.177
  0
VERTEX
  8
STRUCTURE_LEFT
 62
4
 10
129.168
 20
1245.177
  0
VERTEX
  8
STRUCTURE_LEFT
 62
4
 10
129.168
 20
1245.327
  0
VERTEX
  8
STRUCTURE_LEFT
 62
4
 10
129.168
 20
1245.327
  0
VERTEX
  8
STRUCTURE_LEFT
 62
4
 10
129.168
 20
1245.477
  0
VERTEX
  8
STRUCTURE_LEFT
 62
4
 10
129.168
 20
1245.477
  0
VERTEX
  8
STRUCTURE_LEFT
 62
4
 10
129.168
 20
1245.627
  0
VERTEX
  8
STRUCTURE_LEFT
 62
4
 10
129.168
 20
1245.627
  0
VERTEX
  8
STRUCTURE_LEFT
 62
4
 10
129.168
 20
1245.677
  0
VERTEX
  8
STRUCTURE_LEFT
 62
4
 10
129.168
 20
1245.677
  0
SEQEND
  8
STRUCTURE_LEFT
  0
POLYLINE
  8
STRUCTURE_RIGHT
 62
6
 66
  1
  0
VERTEX
  8
STRUCTURE_RIGHT
 62
6
 10
129.168
 20
1245.677
  0
VERTEX
  8
STRUCTURE_RIGHT
 62
6
 10
129.168
 20
1245.677
  0
VERTEX
  8
STRUCTURE_RIGHT
 62
6
 10
129.168
 20
1245.627
  0
VERTEX
  8
STRUCTURE_RIGHT
 62
6
 10
129.168
 20
1245.627
  0
VERTEX
  8
STRUCTURE_RIGHT
 62
6
 10
129.168
 20
1245.477
  0
VERTEX
  8
STRUCTURE_RIGHT
 62
6
 10
129.168
 20
1245.477
  0
VERTEX
  8
STRUCTURE_RIGHT
 62
6
 10
129.168
 20
1245.327
  0
VERTEX
  8
STRUCTURE_RIGHT
 62
6
 10
129.168
 20
1245.327
  0
VERTEX
  8
STRUCTURE_RIGHT
 62
6
 10
129.168
 20
1245.177
  0
VERTEX
  8
STRUCTURE_RIGHT
 62
6
 10
129.168
 20
1245.177
  0
VERTEX
  8
STRUCTURE_RIGHT
 62
6
 10
129.168
 20
1245.027
  0
VERTEX
  8
STRUCTURE_RIGHT
 62
6
 10
129.168
 20
1245.027
  0
VERTEX
  8
STRUCTURE_RIGHT
 62
6
 10
129.168
 20
1244.877
  0
VERTEX
  8
STRUCTURE_RIGHT
 62
6
 10
135.852
 20
1244.710
  0
VERTEX
  8
STRUCTURE_RIGHT
 62
6
 10
135.536
 20
1244.868
  0
VERTEX
  8
STRUCTURE_RIGHT
 62
6
 10
135.536
 20
1244.868
  0
VERTEX
  8
STRUCTURE_RIGHT
 62
6
 10
135.220
 20
1245.026
  0
VERTEX
  8
STRUCTURE_RIGHT
 62
6
 10
135.220
 20
1245.026
  0
VERTEX
  8
STRUCTURE_RIGHT
 62
6
 10
134.904
 20
1245.184
  0
VERTEX
  8
STRUCTURE_RIGHT
 62
6
 10
134.904
 20
1245.184
  0
VERTEX
  8
STRUCTURE_RIGHT
 62
6
 10
134.589
 20
1245.341
  0
VERTEX
  8
STRUCTURE_RIGHT
 62
6
 10
134.589
 20
1245.341
  0
VERTEX
  8
STRUCTURE_RIGHT
 62
6
 10
134.273
 20
1245.499
  0
VERTEX
  8
STRUCTURE_RIGHT
 62
6
 10
134.273
 20
1245.499
  0
VERTEX
  8
STRUCTURE_RIGHT
 62
6
 10
134.168
 20
1245.552
  0
SEQEND
  8
STRUCTURE_RIGHT
  0
POLYLINE
  8
LAYER_0
 62
4
 66
  1
  0
VERTEX
  8
LAYER_0
 62
4
 10
124.168
 20
1245.552
  0
VERTEX
  8
LAYER_0
 62
4
 10
124.062
 20
1245.499
  0
VERTEX
  8
LAYER_0
 62
4
 10
129.168
 20
1245.627
  0
VERTEX
  8
LAYER_0
 62
4
 10
129.168
 20
1245.677
  0
SEQEND
  8
LAYER_0
  0
POLYLINE
  8
LAYER_1
 62
4
 66
  1
  0
VERTEX
  8
LAYER_1
 62
4
 10
124.062
 20
1245.499
  0
VERTEX
  8
LAYER_1
 62
4
 10
123.746
 20
1245.341
  0
VERTEX
  8
LAYER_1
 62
4
 10
129.168
 20
1245.477
  0
VERTEX
  8
LAYER_1
 62
4
 10
129.168
 20
1245.627
  0
SEQEND
  8
LAYER_1
  0
POLYLINE
  8
LAYER_2
 62
4
 66
  1
  0
VERTEX
  8
LAYER_2
 62
4
 10
123.746
 20
1245.341
  0
VERTEX
  8
LAYER_2
 62
4
 10
123.431
 20
1245.184
  0
VERTEX
  8
LAYER_2
 62
4
 10
129.168
 20
1245.327
  0
VERTEX
  8
LAYER_2
 62
4
 10
129.168
 20
1245.477
  0
SEQEND
  8
LAYER_2
  0
POLYLINE
  8
LAYER_3
 62
4
 66
  1
  0
VERTEX
  8
LAYER_3
 62
4
 10
123.431
 20
1245.184
  0
VERTEX
  8
LAYER_3
 62
4
 10
123.115
 20
1245.026
  0
VERTEX
  8
LAYER_3
 62
4
 10
129.168
 20
1245.177
  0
VERTEX
  8
LAYER_3
 62
4
 10
129.168
 20
1245.327
  0
SEQEND
  8
LAYER_3
  0
POLYLINE
  8
LAYER_4
 62
4
 66
  1
  0
VERTEX
  8
LAYER_4
 62
4
 10
123.115
 20
1245.026
  0
VERTEX
  8
LAYER_4
 62
4
 10
122.799
 20
1244.868
  0
VERTEX
  8
LAYER_4
 62
4
 10
129.168
 20
1245.027
  0
VERTEX
  8
LAYER_4
 62
4
 10
129.168
 20
1245.177
  0
SEQEND
  8
LAYER_4
  0
POLYLINE
  8
LAYER_5
 62
4
 66
  1
  0
VERTEX
  8
LAYER_5
 62
4
 10
122.799
 20
1244.868
  0
VERTEX
  8
LAYER_5
 62
4
 10
122.483
 20
1244.710
  0
VERTEX
  8
LAYER_5
 62
4
 10
129.168
 20
1244.877
  0
VERTEX
  8
LAYER_5
 62
4
 10
129.168
 20
1245.027
  0
SEQEND
  8
LAYER_5
  0
POLYLINE
  8
LAYER_6
 62
6
 66
  1
  0
VERTEX
  8
LAYER_6
 62
6
 10
134.168
 20
1245.552
  0
VERTEX
  8
LAYER_6
 62
6
 10
134.273
 20
1245.499
  0
VERTEX
  8
LAYER_6
 62
6
 10
129.168
 20
1245.627
  0
VERTEX
  8
LAYER_6
 62
6
 10
129.168
 20
1245.677
  0
SEQEND
  8
LAYER_6
  0
POLYLINE
  8
LAYER_7
 62
6
 66
  1
  0
VERTEX
  8
LAYER_7
 62
6
 10
134.273
 20
1245.499
  0
VERTEX
  8
LAYER_7
 62
6
 10
134.589
 20
1245.341
  0
VERTEX
  8
LAYER_7
 62
6
 10
129.168
 20
1245.477
  0
VERTEX
  8
LAYER_7
 62
6
 10
129.168
 20
1245.627
  0
SEQEND
  8
LAYER_7
  0
POLYLINE
  8
LAYER_8
 62
6
 66
  1
  0
VERTEX
  8
LAYER_8
 62
6
 10
134.589
 20
1245.341
  0
VERTEX
  8
LAYER_8
 62
6
 10
134.904
 20
1245.184
  0
VERTEX
  8
LAYER_8
 62
6
 10
129.168
 20
1245.327
  0
VERTEX
  8
LAYER_8
 62
6
 10
129.168
 20
1245.477
  0
SEQEND
  8
LAYER_8
  0
POLYLINE
  8
LAYER_9
 62
6
 66
  1
  0
VERTEX
  8
LAYER_9
 62
6
 10
134.904
 20
1245.184
  0
VERTEX
  8
LAYER_9
 62
6
 10
135.220
 20
1245.026
  0
VERTEX
  8
LAYER_9
 62
6
 10
129.168
 20
1245.177
  0
VERTEX
  8
LAYER_9
 62
6
 10
129.168
 20
1245.327
  0
SEQEND
  8
LAYER_9
  0
POLYLINE
  8
LAYER_10
 62
6
 66
  1
  0
VERTEX
  8
LAYER_10
 62
6
 10
135.220
 20
1245.026
  0
VERTEX
  8
LAYER_10
 62
6
 10
135.536
 20
1244.868
  0
VERTEX
  8
LAYER_10
 62
6
 10
129.168
 20
1245.027
  0
VERTEX
  8
LAYER_10
 62
6
 10
129.168
 20
1245.177
  0
SEQEND
  8
LAYER_10
  0
POLYLINE
  8
LAYER_11
 62
6
 66
  1
  0
VERTEX
  8
LAYER_11
 62
6
 10
135.536
 20
1244.868
  0
VERTEX
  8
LAYER_11
 62
6
 10
135.852
 20
1244.710
  0
VERTEX
  8
LAYER_11
 62
6
 10
129.168
 20
1244.877
  0
VERTEX
  8
LAYER_11
 62
6
 10
129.168
 20
1245.027
  0
SEQEND
  8
LAYER_11
  0
POLYLINE
  8
A4_BORDER
 62
7
 66
  1
  0
VERTEX
  8
A4_BORDER
 62
7
 10
114.318
 20
1234.318
  0
VERTEX
  8
A4_BORDER
 62
7
 10
144.018
 20
1234.318
  0
VERTEX
  8
A4_BORDER
 62
7
 10
144.018
 20
1255.318
  0
VERTEX
  8
A4_BORDER
 62
7
 10
114.318
 20
1255.318
  0
VERTEX
  8
A4_BORDER
 62
7
 10
114.318
 20
1234.318
  0
SEQEND
  8
A4_BORDER
  0
TEXT
  8
STATION_TITLE
 10
129.168
 20
1241.818
 40
0.360
 50
0.000
  1
K100+550
 72
  1
 11
129.168
 21
1241.818
  0
TEXT
  8
POINT_TEXT_H
 10
129.168
 20
1246.037
 40
0.300
 50
90.000
  1
1245.677
  0
TEXT
  8
LEFT_TEXT_H
 10
124.168
 20
1245.912
 40
0.300
 50
90.000
  1
1245.552
  0
TEXT
  8
RIGHT_TEXT_H
 10
134.168
 20
1245.912
 40
0.300
 50
90.000
  1
1245.552
  0
TEXT
  8
SLOPE_TEXT
 10
126.668
 20
1245.854
 40
0.300
 50
0.000
  1
-2.50%
 72
  1
 11
126.668
 21
1245.854
  0
TEXT
  8
SLOPE_TEXT
 10
131.668
 20
1245.854
 40
0.300
 50
0.000
  1
-2.50%
 72
  1
 11
131.668
 21
1245.854
  0
TEXT
  8
SLOPE_TEXT
 10
121.703
 20
1244.521
 40
0.300
 50
26.565
  1
1:2.00
 72
  1
 73
  1
 11
121.703
 21
1244.521
  0
TEXT
  8
SLOPE_TEXT
 10
136.086
 20
1244.794
 40
0.300
 50
-26.565
  1
1:2.00
 72
  1
 73
  1
 11
136.086
 21
1244.794
  0
TEXT
  8
INFO_TEXT
 10
127.818
 20
1241.218
 40
0.30
  1
AT:21.473
  0
TEXT
  8
INFO_TEXT
 10
127.818
 20
1240.768
 40
0.30
  1
AW:0.000
  0
TEXT
  8
INFO_TEXT
 10
127.818
 20
1240.318
 40
0.30
  1
Topsoil:18.530
  0
TEXT
  8
INFO_TEXT
 10
127.818
 20
1239.868
 40
0.30
  1
L:top:0.253
  0
TEXT
  8
INFO_TEXT
 10
127.818
 20
1239.418
 40
0.30
  1
L:CRR:0.789
  0
TEXT
  8
INFO_TEXT
 10
127.818
 20
1238.968
 40
0.30
  1
L:C1:0.837
  0
TEXT
  8
INFO_TEXT
 10
127.818
 20
1238.518
 40
0.30
  1
L:C2:0.884
  0
TEXT
  8
INFO_TEXT
 10
127.818
 20
1238.068
 40
0.30
  1
L:G15:0.932
  0
TEXT
  8
INFO_TEXT
 10
127.818
 20
1237.618
 40
0.30
  1
L:G7:0.979
  0
TEXT
  8
INFO_TEXT
 10
127.818
 20
1237.168
 40
0.30
  1
R:top:0.253
  0
TEXT
  8
INFO_TEXT
 10
127.818
 20
1236.718
 40
0.30
  1
R:CRR:0.789
  0
TEXT
  8
INFO_TEXT
 10
127.818
 20
1236.268
 40
0.30
  1
R:C1:0.837
  0
TEXT
  8
INFO_TEXT
 10
127.818
 20
1235.818
 40
0.30
  1
R:C2:0.884
  0
TEXT
  8
INFO_TEXT
 10
127.818
 20
1235.368
 40
0.30
  1
R:G15:0.932
  0
TEXT
  8
INFO_TEXT
 10
127.818
 20
1234.918
 40
0.30
  1
R:G17:0.979
  0
POLYLINE
  8
DESIGN_ROAD_TRIMMED
 62
1
 66
  1
  0
VERTEX
  8
DESIGN_ROAD_TRIMMED
 62
1
 10
179.100
 20
1243.548
  0
VERTEX
  8
DESIGN_ROAD_TRIMMED
 62
1
 10
183.929
 20
1245.962
  0
VERTEX
  8
DESIGN_ROAD_TRIMMED
 62
1
 10
183.929
 20
1245.962
  0
VERTEX
  8
DESIGN_ROAD_TRIMMED
 62
1
 10
183.823
 20
1245.909
  0
VERTEX
  8
DESIGN_ROAD_TRIMMED
 62
1
 10
183.823
 20
1245.909
  0
VERTEX
  8
DESIGN_ROAD_TRIMMED
 62
1
 10
183.508
 20
1245.751
  0
VERTEX
  8
DESIGN_ROAD_TRIMMED
 62
1
 10
183.508
 20
1245.751
  0
VERTEX
  8
DESIGN_ROAD_TRIMMED
 62
1
 10
183.192
 20
1245.594
  0
VERTEX
  8
DESIGN_ROAD_TRIMMED
 62
1
 10
183.192
 20
1245.594
  0
VERTEX
  8
DESIGN_ROAD_TRIMMED
 62
1
 10
182.876
 20
1245.436
  0
VERTEX
  8
DESIGN_ROAD_TRIMMED
 62
1
 10
182.876
 20
1245.436
  0
VERTEX
  8
DESIGN_ROAD_TRIMMED
 62
1
 10
182.560
 20
1245.278
  0
VERTEX
  8
DESIGN_ROAD_TRIMMED
 62
1
 10
182.560
 20
1245.278
  0
VERTEX
  8
DESIGN_ROAD_TRIMMED
 62
1
 10
182.244
 20
1245.120
  0
VERTEX
  8
DESIGN_ROAD_TRIMMED
 62
1
 10
188.929
 20
1245.287
  0
VERTEX
  8
DESIGN_ROAD_TRIMMED
 62
1
 10
188.929
 20
1245.437
  0
VERTEX
  8
DESIGN_ROAD_TRIMMED
 62
1
 10
188.929
 20
1245.437
  0
VERTEX
  8
DESIGN_ROAD_TRIMMED
 62
1
 10
188.929
 20
1245.587
  0
VERTEX
  8
DESIGN_ROAD_TRIMMED
 62
1
 10
188.929
 20
1245.587
  0
VERTEX
  8
DESIGN_ROAD_TRIMMED
 62
1
 10
188.929
 20
1245.737
  0
VERTEX
  8
DESIGN_ROAD_TRIMMED
 62
1
 10
188.929
 20
1245.737
  0
VERTEX
  8
DESIGN_ROAD_TRIMMED
 62
1
 10
188.929
 20
1245.887
  0
VERTEX
  8
DESIGN_ROAD_TRIMMED
 62
1
 10
188.929
 20
1245.887
  0
VERTEX
  8
DESIGN_ROAD_TRIMMED
 62
1
 10
188.929
 20
1246.037
  0
VERTEX
  8
DESIGN_ROAD_TRIMMED
 62
1
 10
188.929
 20
1246.037
  0
VERTEX
  8
DESIGN_ROAD_TRIMMED
 62
1
 10
188.929
 20
1246.087
  0
VERTEX
  8
DESIGN_ROAD_TRIMMED
 62
1
 10
188.929
 20
1246.087
  0
VERTEX
  8
DESIGN_ROAD_TRIMMED
 62
1
 10
188.929
 20
1246.087
  0
VERTEX
  8
DESIGN_ROAD_TRIMMED
 62
1
 10
188.929
 20
1246.087
  0
VERTEX
  8
DESIGN_ROAD_TRIMMED
 62
1
 10
188.929
 20
1246.087
  0
VERTEX
  8
DESIGN_ROAD_TRIMMED
 62
1
 10
188.929
 20
1246.037
  0
VERTEX
  8
DESIGN_ROAD_TRIMMED
 62
1
 10
188.929
 20
1246.037
  0
VERTEX
  8
DESIGN_ROAD_TRIMMED
 62
1
 10
188.929
 20
1245.887
  0
VERTEX
  8
DESIGN_ROAD_TRIMMED
 62
1
 10
188.929
 20
1245.887
  0
VERTEX
  8
DESIGN_ROAD_TRIMMED
 62
1
 10
188.929
 20
1245.737
  0
VERTEX
  8
DESIGN_ROAD_TRIMMED
 62
1
 10
188.929
 20
1245.737
  0
VERTEX
  8
DESIGN_ROAD_TRIMMED
 62
1
 10
188.929
 20
1245.587
  0
VERTEX
  8
DESIGN_ROAD_TRIMMED
 62
1
 10
188.929
 20
1245.587
  0
VERTEX
  8
DESIGN_ROAD_TRIMMED
 62
1
 10
188.929
 20
1245.437
  0
VERTEX
  8
DESIGN_ROAD_TRIMMED
 62
1
 10
188.929
 20
1245.437
  0
VERTEX
  8
DESIGN_ROAD_TRIMMED
 62
1
 10
188.929
 20
1245.287
  0
VERTEX
  8
DESIGN_ROAD_TRIMMED
 62
1
 10
195.613
 20
1245.120
  0
VERTEX
  8
DESIGN_ROAD_TRIMMED
 62
1
 10
195.297
 20
1245.278
  0
VERTEX
  8
DESIGN_ROAD_TRIMMED
 62
1
 10
195.297
 20
1245.278
  0
VERTEX
  8
DESIGN_ROAD_TRIMMED
 62
1
 10
194.981
 20
1245.436
  0
VERTEX
  8
DESIGN_ROAD_TRIMMED
 62
1
 10
194.981
 20
1245.436
  0
VERTEX
  8
DESIGN_ROAD_TRIMMED
 62
1
 10
194.665
 20
1245.594
  0
VERTEX
  8
DESIGN_ROAD_TRIMMED
 62
1
 10
194.665
 20
1245.594
  0
VERTEX
  8
DESIGN_ROAD_TRIMMED
 62
1
 10
194.350
 20
1245.751
  0
VERTEX
  8
DESIGN_ROAD_TRIMMED
 62
1
 10
194.350
 20
1245.751
  0
VERTEX
  8
DESIGN_ROAD_TRIMMED
 62
1
 10
194.034
 20
1245.909
  0
VERTEX
  8
DESIGN_ROAD_TRIMMED
 62
1
 10
194.034
 20
1245.909
  0
VERTEX
  8
DESIGN_ROAD_TRIMMED
 62
1
 10
193.929
 20
1245.962
  0
VERTEX
  8
DESIGN_ROAD_TRIMMED
 62
1
 10
193.929
 20
1245.962
  0
VERTEX
  8
DESIGN_ROAD_TRIMMED
 62
1
 10
197.400
 20
1244.226
  0
SEQEND
  8
DESIGN_ROAD_TRIMMED
  0
POLYLINE
  8
NATURAL_GROUND
 62
3
 66
  1
  0
VERTEX
  8
NATURAL_GROUND
 62
3
 10
172.838
 20
1244.682
  0
VERTEX
  8
NATURAL_GROUND
 62
3
 10
173.610
 20
1244.842
  0
VERTEX
  8
NATURAL_GROUND
 62
3
 10
174.647
 20
1244.608
  0
VERTEX
  8
NATURAL_GROUND
 62
3
 10
178.823
 20
1244.523
  0
VERTEX
  8
NATURAL_GROUND
 62
3
 10
181.604
 20
1244.838
  0
VERTEX
  8
NATURAL_GROUND
 62
3
 10
184.163
 20
1244.720
  0
VERTEX
  8
NATURAL_GROUND
 62
3
 10
185.938
 20
1245.023
  0
VERTEX
  8
NATURAL_GROUND
 62
3
 10
188.894
 20
1245.225
  0
VERTEX
  8
NATURAL_GROUND
 62
3
 10
192.126
 20
1245.132
  0
VERTEX
  8
NATURAL_GROUND
 62
3
 10
193.293
 20
1244.910
  0
VERTEX
  8
NATURAL_GROUND
 62
3
 10
193.872
 20
1244.944
  0
VERTEX
  8
NATURAL_GROUND
 62
3
 10
197.022
 20
1245.168
  0
VERTEX
  8
NATURAL_GROUND
 62
3
 10
197.973
 20
1245.371
  0
VERTEX
  8
NATURAL_GROUND
 62
3
 10
201.069
 20
1244.413
  0
VERTEX
  8
NATURAL_GROUND
 62
3
 10
203.561
 20
1245.096
  0
VERTEX
  8
NATURAL_GROUND
 62
3
 10
205.011
 20
1244.994
  0
SEQEND
  8
NATURAL_GROUND
  0
POLYLINE
  8
CLEAR_GROUND
 62
8
 66
  1
  0
VERTEX
  8
CLEAR_GROUND
 62
8
 10
165.208
 20
1242.078
  0
VERTEX
  8
CLEAR_GROUND
 62
8
 10
173.601
 20
1243.819
  0
VERTEX
  8
CLEAR_GROUND
 62
8
 10
174.525
 20
1243.610
  0
VERTEX
  8
CLEAR_GROUND
 62
8
 10
178.870
 20
1243.522
  0
VERTEX
  8
CLEAR_GROUND
 62
8
 10
181.637
 20
1243.835
  0
VERTEX
  8
CLEAR_GROUND
 62
8
 10
184.225
 20
1243.716
  0
VERTEX
  8
CLEAR_GROUND
 62
8
 10
186.056
 20
1244.029
  0
VERTEX
  8
CLEAR_GROUND
 62
8
 10
188.914
 20
1244.224
  0
VERTEX
  8
CLEAR_GROUND
 62
8
 10
192.018
 20
1244.135
  0
VERTEX
  8
CLEAR_GROUND
 62
8
 10
193.228
 20
1243.904
  0
VERTEX
  8
CLEAR_GROUND
 62
8
 10
193.937
 20
1243.946
  0
VERTEX
  8
CLEAR_GROUND
 62
8
 10
197.162
 20
1244.175
  0
VERTEX
  8
CLEAR_GROUND
 62
8
 10
197.927
 20
1244.338
  0
VERTEX
  8
CLEAR_GROUND
 62
8
 10
201.052
 20
1243.372
  0
VERTEX
  8
CLEAR_GROUND
 62
8
 10
203.661
 20
1244.086
  0
VERTEX
  8
CLEAR_GROUND
 62
8
 10
212.921
 20
1243.439
  0
SEQEND
  8
CLEAR_GROUND
  0
POLYLINE
  8
FINISHED_ROAD
 62
2
 66
  1
  0
VERTEX
  8
FINISHED_ROAD
 62
2
 10
183.929
 20
1245.962
  0
VERTEX
  8
FINISHED_ROAD
 62
2
 10
183.929
 20
1245.962
  0
VERTEX
  8
FINISHED_ROAD
 62
2
 10
188.929
 20
1246.087
  0
VERTEX
  8
FINISHED_ROAD
 62
2
 10
193.929
 20
1245.962
  0
VERTEX
  8
FINISHED_ROAD
 62
2
 10
193.929
 20
1245.962
  0
SEQEND
  8
FINISHED_ROAD
  0
POLYLINE
  8
STRUCTURE_LEFT
 62
4
 66
  1
  0
VERTEX
  8
STRUCTURE_LEFT
 62
4
 10
183.929
 20
1245.962
  0
VERTEX
  8
STRUCTURE_LEFT
 62
4
 10
183.823
 20
1245.909
  0
VERTEX
  8
STRUCTURE_LEFT
 62
4
 10
183.823
 20
1245.909
  0
VERTEX
  8
STRUCTURE_LEFT
 62
4
 10
183.508
 20
1245.751
  0
VERTEX
  8
STRUCTURE_LEFT
 62
4
 10
183.508
 20
1245.751
  0
VERTEX
  8
STRUCTURE_LEFT
 62
4
 10
183.192
 20
1245.594
  0
VERTEX
  8
STRUCTURE_LEFT
 62
4
 10
183.192
 20
1245.594
  0
VERTEX
  8
STRUCTURE_LEFT
 62
4
 10
182.876
 20
1245.436
  0
VERTEX
  8
STRUCTURE_LEFT
 62
4
 10
182.876
 20
1245.436
  0
VERTEX
  8
STRUCTURE_LEFT
 62
4
 10
182.560
 20
1245.278
  0
VERTEX
  8
STRUCTURE_LEFT
 62
4
 10
182.560
 20
1245.278
  0
VERTEX
  8
STRUCTURE_LEFT
 62
4
 10
182.244
 20
1245.120
  0
VERTEX
  8
STRUCTURE_LEFT
 62
4
 10
188.929
 20
1245.287
  0
VERTEX
  8
STRUCTURE_LEFT
 62
4
 10
188.929
 20
1245.437
  0
VERTEX
  8
STRUCTURE_LEFT
 62
4
 10
188.929
 20
1245.437
  0
VERTEX
  8
STRUCTURE_LEFT
 62
4
 10
188.929
 20
1245.587
  0
VERTEX
  8
STRUCTURE_LEFT
 62
4
 10
188.929
 20
1245.587
  0
VERTEX
  8
STRUCTURE_LEFT
 62
4
 10
188.929
 20
1245.737
  0
VERTEX
  8
STRUCTURE_LEFT
 62
4
 10
188.929
 20
1245.737
  0
VERTEX
  8
STRUCTURE_LEFT
 62
4
 10
188.929
 20
1245.887
  0
VERTEX
  8
STRUCTURE_LEFT
 62
4
 10
188.929
 20
1245.887
  0
VERTEX
  8
STRUCTURE_LEFT
 62
4
 10
188.929
 20
1246.037
  0
VERTEX
  8
STRUCTURE_LEFT
 62
4
 10
188.929
 20
1246.037
  0
VERTEX
  8
STRUCTURE_LEFT
 62
4
 10
188.929
 20
1246.087
  0
VERTEX
  8
STRUCTURE_LEFT
 62
4
 10
188.929
 20
1246.087
  0
SEQEND
  8
STRUCTURE_LEFT
  0
POLYLINE
  8
STRUCTURE_RIGHT
 62
6
 66
  1
  0
VERTEX
  8
STRUCTURE_RIGHT
 62
6
 10
188.929
 20
1246.087
  0
VERTEX
  8
STRUCTURE_RIGHT
 62
6
 10
188.929
 20
1246.087
  0
VERTEX
  8
STRUCTURE_RIGHT
 62
6
 10
188.929
 20
1246.037
  0
VERTEX
  8
STRUCTURE_RIGHT
 62
6
 10
188.929
 20
1246.037
  0
VERTEX
  8
STRUCTURE_RIGHT
 62
6
 10
188.929
 20
1245.887
  0
VERTEX
  8
STRUCTURE_RIGHT
 62
6
 10
188.929
 20
1245.887
  0
VERTEX
  8
STRUCTURE_RIGHT
 62
6
 10
188.929
 20
1245.737
  0
VERTEX
  8
STRUCTURE_RIGHT
 62
6
 10
188.929
 20
1245.737
  0
VERTEX
  8
STRUCTURE_RIGHT
 62
6
 10
188.929
 20
1245.587
  0
VERTEX
  8
STRUCTURE_RIGHT
 62
6
 10
188.929
 20
1245.587
  0
VERTEX
  8
STRUCTURE_RIGHT
 62
6
 10
188.929
 20
1245.437
  0
VERTEX
  8
STRUCTURE_RIGHT
 62
6
 10
188.929
 20
1245.437
  0
VERTEX
  8
STRUCTURE_RIGHT
 62
6
 10
188.929
 20
1245.287
  0
VERTEX
  8
STRUCTURE_RIGHT
 62
6
 10
195.613
 20
1245.120
  0
VERTEX
  8
STRUCTURE_RIGHT
 62
6
 10
195.297
 20
1245.278
  0
VERTEX
  8
STRUCTURE_RIGHT
 62
6
 10
195.297
 20
1245.278
  0
VERTEX
  8
STRUCTURE_RIGHT
 62
6
 10
194.981
 20
1245.436
  0
VERTEX
  8
STRUCTURE_RIGHT
 62
6
 10
194.981
 20
1245.436
  0
VERTEX
  8
STRUCTURE_RIGHT
 62
6
 10
194.665
 20
1245.594
  0
VERTEX
  8
STRUCTURE_RIGHT
 62
6
 10
194.665
 20
1245.594
  0
VERTEX
  8
STRUCTURE_RIGHT
 62
6
 10
194.350
 20
1245.751
  0
VERTEX
  8
STRUCTURE_RIGHT
 62
6
 10
194.350
 20
1245.751
  0
VERTEX
  8
STRUCTURE_RIGHT
 62
6
 10
194.034
 20
1245.909
  0
VERTEX
  8
STRUCTURE_RIGHT
 62
6
 10
194.034
 20
1245.909
  0
VERTEX
  8
STRUCTURE_RIGHT
 62
6
 10
193.929
 20
1245.962
  0
SEQEND
  8
STRUCTURE_RIGHT
  0
POLYLINE
  8
LAYER_0
 62
4
 66
  1
  0
VERTEX
  8
LAYER_0
 62
4
 10
183.929
 20
1245.962
  0
VERTEX
  8
LAYER_0
 62
4
 10
183.823
 20
1245.909
  0
VERTEX
  8
LAYER_0
 62
4
 10
188.929
 20
1246.037
  0
VERTEX
  8
LAYER_0
 62
4
 10
188.929
 20
1246.087
  0
SEQEND
  8
LAYER_0
  0
POLYLINE
  8
LAYER_1
 62
4
 66
  1
  0
VERTEX
  8
LAYER_1
 62
4
 10
183.823
 20
1245.909
  0
VERTEX
  8
LAYER_1
 62
4
 10
183.508
 20
1245.751
  0
VERTEX
  8
LAYER_1
 62
4
 10
188.929
 20
1245.887
  0
VERTEX
  8
LAYER_1
 62
4
 10
188.929
 20
1246.037
  0
SEQEND
  8
LAYER_1
  0
POLYLINE
  8
LAYER_2
 62
4
 66
  1
  0
VERTEX
  8
LAYER_2
 62
4
 10
183.508
 20
1245.751
  0
VERTEX
  8
LAYER_2
 62
4
 10
183.192
 20
1245.594
  0
VERTEX
  8
LAYER_2
 62
4
 10
188.929
 20
1245.737
  0
VERTEX
  8
LAYER_2
 62
4
 10
188.929
 20
1245.887
  0
SEQEND
  8
LAYER_2
  0
POLYLINE
  8
LAYER_3
 62
4
 66
  1
  0
VERTEX
  8
LAYER_3
 62
4
 10
183.192
 20
1245.594
  0
VERTEX
  8
LAYER_3
 62
4
 10
182.876
 20
1245.436
  0
VERTEX
  8
LAYER_3
 62
4
 10
188.929
 20
1245.587
  0
VERTEX
  8
LAYER_3
 62
4
 10
188.929
 20
1245.737
  0
SEQEND
  8
LAYER_3
  0
POLYLINE
  8
LAYER_4
 62
4
 66
  1
  0
VERTEX
  8
LAYER_4
 62
4
 10
182.876
 20
1245.436
  0
VERTEX
  8
LAYER_4
 62
4
 10
182.560
 20
1245.278
  0
VERTEX
  8
LAYER_4
 62
4
 10
188.929
 20
1245.437
  0
VERTEX
  8
LAYER_4
 62
4
 10
188.929
 20
1245.587
  0
SEQEND
  8
LAYER_4
  0
POLYLINE
  8
LAYER_5
 62
4
 66
  1
  0
VERTEX
  8
LAYER_5
 62
4
 10
182.560
 20
1245.278
  0
VERTEX
  8
LAYER_5
 62
4
 10
182.244
 20
1245.120
  0
VERTEX
  8
LAYER_5
 62
4
 10
188.929
 20
1245.287
  0
VERTEX
  8
LAYER_5
 62
4
 10
188.929
 20
1245.437
  0
SEQEND
  8
LAYER_5
  0
POLYLINE
  8
LAYER_6
 62
6
 66
  1
  0
VERTEX
  8
LAYER_6
 62
6
 10
193.929
 20
1245.962
  0
VERTEX
  8
LAYER_6
 62
6
 10
194.034
 20
1245.909
  0
VERTEX
  8
LAYER_6
 62
6
 10
188.929
 20
1246.037
  0
VERTEX
  8
LAYER_6
 62
6
 10
188.929
 20
1246.087
  0
SEQEND
  8
LAYER_6
  0
POLYLINE
  8
LAYER_7
 62
6
 66
  1
  0
VERTEX
  8
LAYER_7
 62
6
 10
194.034
 20
1245.909
  0
VERTEX
  8
LAYER_7
 62
6
 10
194.350
 20
1245.751
  0
VERTEX
  8
LAYER_7
 62
6
 10
188.929
 20
1245.887
  0
VERTEX
  8
LAYER_7
 62
6
 10
188.929
 20
1246.037
  0
SEQEND
  8
LAYER_7
  0
POLYLINE
  8
LAYER_8
 62
6
 66
  1
  0
VERTEX
  8
LAYER_8
 62
6
 10
194.350
 20
1245.751
  0
VERTEX
  8
LAYER_8
 62
6
 10
194.665
 20
1245.594
  0
VERTEX
  8
LAYER_8
 62
6
 10
188.929
 20
1245.737
  0
VERTEX
  8
LAYER_8
 62
6
 10
188.929
 20
1245.887
  0
SEQEND
  8
LAYER_8
  0
POLYLINE
  8
LAYER_9
 62
6
 66
  1
  0
VERTEX
  8
LAYER_9
 62
6
 10
194.665
 20
1245.594
  0
VERTEX
  8
LAYER_9
 62
6
 10
194.981
 20
1245.436
  0
VERTEX
  8
LAYER_9
 62
6
 10
188.929
 20
1245.587
  0
VERTEX
  8
LAYER_9
 62
6
 10
188.929
 20
1245.737
  0
SEQEND
  8
LAYER_9
  0
POLYLINE
  8
LAYER_10
 62
6
 66
  1
  0
VERTEX
  8
LAYER_10
 62
6
 10
194.981
 20
1245.436
  0
VERTEX
  8
LAYER_10
 62
6
 10
195.297
 20
1245.278
  0
VERTEX
  8
LAYER_10
 62
6
 10
188.929
 20
1245.437
  0
VERTEX
  8
LAYER_10
 62
6
 10
188.929
 20
1245.587
  0
SEQEND
  8
LAYER_10
  0
POLYLINE
  8
LAYER_11
 62
6
 66
  1
  0
VERTEX
  8
LAYER_11
 62
6
 10
195.297
 20
1245.278
  0
VERTEX
  8
LAYER_11
 62
6
 10
195.613
 20
1245.120
  0
VERTEX
  8
LAYER_11
 62
6
 10
188.929
 20
1245.287
  0
VERTEX
  8
LAYER_11
 62
6
 10
188.929
 20
1245.437
  0
SEQEND
  8
LAYER_11
  0
POLYLINE
  8
A4_BORDER
 62
7
 66
  1
  0
VERTEX
  8
A4_BORDER
 62
7
 10
174.079
 20
1234.698
  0
VERTEX
  8
A4_BORDER
 62
7
 10
203.779
 20
1234.698
  0
VERTEX
  8
A4_BORDER
 62
7
 10
203.779
 20
1255.698
  0
VERTEX
  8
A4_BORDER
 62
7
 10
174.079
 20
1255.698
  0
VERTEX
  8
A4_BORDER
 62
7
 10
174.079
 20
1234.698
  0
SEQEND
  8
A4_BORDER
  0
TEXT
  8
STATION_TITLE
 10
188.929
 20
1242.198
 40
0.360
 50
0.000
  1
K100+575
 72
  1
 11
188.929
 21
1242.198
  0
TEXT
  8
POINT_TEXT_H
 10
188.929
 20
1246.447
 40
0.300
 50
90.000
  1
1246.087
  0
TEXT
  8
LEFT_TEXT_H
 10
183.929
 20
1246.322
 40
0.300
 50
90.000
  1
1245.962
  0
TEXT
  8
RIGHT_TEXT_H
 10
193.929
 20
1246.322
 40
0.300
 50
90.000
  1
1245.962
  0
TEXT
  8
SLOPE_TEXT
 10
186.429
 20
1246.264
 40
0.300
 50
0.000
  1
-2.50%
 72
  1
 11
186.429
 21
1246.264
  0
TEXT
  8
SLOPE_TEXT
 10
191.429
 20
1246.264
 40
0.300
 50
0.000
  1
-2.50%
 72
  1
 11
191.429
 21
1246.264
  0
TEXT
  8
SLOPE_TEXT
 10
181.434
 20
1244.916
 40
0.300
 50
26.565
  1
1:2.00
 72
  1
 73
  1
 11
181.434
 21
1244.916
  0
TEXT
  8
SLOPE_TEXT
 10
195.745
 20
1245.255
 40
0.300
 50
-26.565
  1
1:2.00
 72
  1
 73
  1
 11
195.745
 21
1245.255
  0
TEXT
  8
INFO_TEXT
 10
187.579
 20
1241.598
 40
0.30
  1
AT:18.803
  0
TEXT
  8
INFO_TEXT
 10
187.579
 20
1241.148
 40
0.30
  1
AW:0.000
  0
TEXT
  8
INFO_TEXT
 10
187.579
 20
1240.698
 40
0.30
  1
Topsoil:18.391
  0
TEXT
  8
INFO_TEXT
 10
187.579
 20
1240.248
 40
0.30
  1
L:top:0.253
  0
TEXT
  8
INFO_TEXT
 10
187.579
 20
1239.798
 40
0.30
  1
L:CRR:0.789
  0
TEXT
  8
INFO_TEXT
 10
187.579
 20
1239.348
 40
0.30
  1
L:C1:0.837
  0
TEXT
  8
INFO_TEXT
 10
187.579
 20
1238.898
 40
0.30
  1
L:C2:0.884
  0
TEXT
  8
INFO_TEXT
 10
187.579
 20
1238.448
 40
0.30
  1
L:G15:0.932
  0
TEXT
  8
INFO_TEXT
 10
187.579
 20
1237.998
 40
0.30
  1
L:G7:0.979
  0
TEXT
  8
INFO_TEXT
 10
187.579
 20
1237.548
 40
0.30
  1
R:top:0.253
  0
TEXT
  8
INFO_TEXT
 10
187.579
 20
1237.098
 40
0.30
  1
R:CRR:0.789
  0
TEXT
  8
INFO_TEXT
 10
187.579
 20
1236.648
 40
0.30
  1
R:C1:0.837
  0
TEXT
  8
INFO_TEXT
 10
187.579
 20
1236.198
 40
0.30
  1
R:C2:0.884
  0
TEXT
  8
INFO_TEXT
 10
187.579
 20
1235.748
 40
0.30
  1
R:G15:0.932
  0
TEXT
  8
INFO_TEXT
 10
187.579
 20
1235.298
 40
0.30
  1
R:G17:0.979
  0
POLYLINE
  8
DESIGN_ROAD_TRIMMED
 62
1
 66
  1
  0
VERTEX
  8
DESIGN_ROAD_TRIMMED
 62
1
 10
238.800
 20
1232.702
  0
VERTEX
  8
DESIGN_ROAD_TRIMMED
 62
1
 10
242.673
 20
1234.638
  0
VERTEX
  8
DESIGN_ROAD_TRIMMED
 62
1
 10
242.673
 20
1234.638
  0
VERTEX
  8
DESIGN_ROAD_TRIMMED
 62
1
 10
242.582
 20
1234.592
  0
VERTEX
  8
DESIGN_ROAD_TRIMMED
 62
1
 10
242.582
 20
1234.592
  0
VERTEX
  8
DESIGN_ROAD_TRIMMED
 62
1
 10
242.308
 20
1234.456
  0
VERTEX
  8
DESIGN_ROAD_TRIMMED
 62
1
 10
242.308
 20
1234.456
  0
VERTEX
  8
DESIGN_ROAD_TRIMMED
 62
1
 10
242.034
 20
1234.319
  0
VERTEX
  8
DESIGN_ROAD_TRIMMED
 62
1
 10
242.034
 20
1234.319
  0
VERTEX
  8
DESIGN_ROAD_TRIMMED
 62
1
 10
241.761
 20
1234.182
  0
VERTEX
  8
DESIGN_ROAD_TRIMMED
 62
1
 10
241.761
 20
1234.182
  0
VERTEX
  8
DESIGN_ROAD_TRIMMED
 62
1
 10
241.487
 20
1234.045
  0
VERTEX
  8
DESIGN_ROAD_TRIMMED
 62
1
 10
241.487
 20
1234.045
  0
VERTEX
  8
DESIGN_ROAD_TRIMMED
 62
1
 10
241.213
 20
1233.908
  0
VERTEX
  8
DESIGN_ROAD_TRIMMED
 62
1
 10
247.673
 20
1233.598
  0
VERTEX
  8
DESIGN_ROAD_TRIMMED
 62
1
 10
247.673
 20
1233.748
  0
VERTEX
  8
DESIGN_ROAD_TRIMMED
 62
1
 10
247.673
 20
1233.748
  0
VERTEX
  8
DESIGN_ROAD_TRIMMED
 62
1
 10
247.673
 20
1233.898
  0
VERTEX
  8
DESIGN_ROAD_TRIMMED
 62
1
 10
247.673
 20
1233.898
  0
VERTEX
  8
DESIGN_ROAD_TRIMMED
 62
1
 10
247.673
 20
1234.048
  0
VERTEX
  8
DESIGN_ROAD_TRIMMED
 62
1
 10
247.673
 20
1234.048
  0
VERTEX
  8
DESIGN_ROAD_TRIMMED
 62
1
 10
247.673
 20
1234.198
  0
VERTEX
  8
DESIGN_ROAD_TRIMMED
 62
1
 10
247.673
 20
1234.198
  0
VERTEX
  8
DESIGN_ROAD_TRIMMED
 62
1
 10
247.673
 20
1234.348
  0
VERTEX
  8
DESIGN_ROAD_TRIMMED
 62
1
 10
247.673
 20
1234.348
  0
VERTEX
  8
DESIGN_ROAD_TRIMMED
 62
1
 10
247.673
 20
1234.398
  0
VERTEX
  8
DESIGN_ROAD_TRIMMED
 62
1
 10
247.673
 20
1234.398
  0
VERTEX
  8
DESIGN_ROAD_TRIMMED
 62
1
 10
247.673
 20
1234.398
  0
VERTEX
  8
DESIGN_ROAD_TRIMMED
 62
1
 10
247.673
 20
1234.398
  0
VERTEX
  8
DESIGN_ROAD_TRIMMED
 62
1
 10
247.673
 20
1234.398
  0
VERTEX
  8
DESIGN_ROAD_TRIMMED
 62
1
 10
247.673
 20
1234.348
  0
VERTEX
  8
DESIGN_ROAD_TRIMMED
 62
1
 10
247.673
 20
1234.348
  0
VERTEX
  8
DESIGN_ROAD_TRIMMED
 62
1
 10
247.673
 20
1234.198
  0
VERTEX
  8
DESIGN_ROAD_TRIMMED
 62
1
 10
247.673
 20
1234.198
  0
VERTEX
  8
DESIGN_ROAD_TRIMMED
 62
1
 10
247.673
 20
1234.048
  0
VERTEX
  8
DESIGN_ROAD_TRIMMED
 62
1
 10
247.673
 20
1234.048
  0
VERTEX
  8
DESIGN_ROAD_TRIMMED
 62
1
 10
247.673
 20
1233.898
  0
VERTEX
  8
DESIGN_ROAD_TRIMMED
 62
1
 10
247.673
 20
1233.898
  0
VERTEX
  8
DESIGN_ROAD_TRIMMED
 62
1
 10
247.673
 20
1233.748
  0
VERTEX
  8
DESIGN_ROAD_TRIMMED
 62
1
 10
247.673
 20
1233.748
  0
VERTEX
  8
DESIGN_ROAD_TRIMMED
 62
1
 10
247.673
 20
1233.598
  0
VERTEX
  8
DESIGN_ROAD_TRIMMED
 62
1
 10
254.443
 20
1233.273
  0
VERTEX
  8
DESIGN_ROAD_TRIMMED
 62
1
 10
254.111
 20
1233.439
  0
VERTEX
  8
DESIGN_ROAD_TRIMMED
 62
1
 10
254.111
 20
1233.439
  0
VERTEX
  8
DESIGN_ROAD_TRIMMED
 62
1
 10
253.779
 20
1233.605
  0
VERTEX
  8
DESIGN_ROAD_TRIMMED
 62
1
 10
253.779
 20
1233.605
  0
VERTEX
  8
DESIGN_ROAD_TRIMMED
 62
1
 10
253.447
 20
1233.771
  0
VERTEX
  8
DESIGN_ROAD_TRIMMED
 62
1
 10
253.447
 20
1233.771
  0
VERTEX
  8
DESIGN_ROAD_TRIMMED
 62
1
 10
253.115
 20
1233.937
  0
VERTEX
  8
DESIGN_ROAD_TRIMMED
 62
1
 10
253.115
 20
1233.937
  0
VERTEX
  8
DESIGN_ROAD_TRIMMED
 62
1
 10
252.784
 20
1234.103
  0
VERTEX
  8
DESIGN_ROAD_TRIMMED
 62
1
 10
252.784
 20
1234.103
  0
VERTEX
  8
DESIGN_ROAD_TRIMMED
 62
1
 10
252.673
 20
1234.158
  0
VERTEX
  8
DESIGN_ROAD_TRIMMED
 62
1
 10
252.673
 20
1234.158
  0
VERTEX
  8
DESIGN_ROAD_TRIMMED
 62
1
 10
255.385
 20
1232.802
  0
SEQEND
  8
DESIGN_ROAD_TRIMMED
  0
POLYLINE
  8
NATURAL_GROUND
 62
3
 66
  1
  0
VERTEX
  8
NATURAL_GROUND
 62
3
 10
231.002
 20
1233.435
  0
VERTEX
  8
NATURAL_GROUND
 62
3
 10
237.644
 20
1233.663
  0
VERTEX
  8
NATURAL_GROUND
 62
3
 10
240.820
 20
1233.771
  0
VERTEX
  8
NATURAL_GROUND
 62
3
 10
241.974
 20
1233.382
  0
VERTEX
  8
NATURAL_GROUND
 62
3
 10
243.230
 20
1233.365
  0
VERTEX
  8
NATURAL_GROUND
 62
3
 10
244.487
 20
1233.652
  0
VERTEX
  8
NATURAL_GROUND
 62
3
 10
245.214
 20
1233.757
  0
VERTEX
  8
NATURAL_GROUND
 62
3
 10
246.896
 20
1233.784
  0
VERTEX
  8
NATURAL_GROUND
 62
3
 10
247.726
 20
1233.798
  0
VERTEX
  8
NATURAL_GROUND
 62
3
 10
248.896
 20
1233.780
  0
VERTEX
  8
NATURAL_GROUND
 62
3
 10
249.692
 20
1233.674
  0
VERTEX
  8
NATURAL_GROUND
 62
3
 10
250.119
 20
1233.618
  0
VERTEX
  8
NATURAL_GROUND
 62
3
 10
250.264
 20
1233.600
  0
VERTEX
  8
NATURAL_GROUND
 62
3
 10
251.357
 20
1233.470
  0
VERTEX
  8
NATURAL_GROUND
 62
3
 10
253.665
 20
1233.434
  0
VERTEX
  8
NATURAL_GROUND
 62
3
 10
254.693
 20
1233.699
  0
VERTEX
  8
NATURAL_GROUND
 62
3
 10
255.046
 20
1233.790
  0
VERTEX
  8
NATURAL_GROUND
 62
3
 10
256.763
 20
1233.855
  0
VERTEX
  8
NATURAL_GROUND
 62
3
 10
263.718
 20
1234.117
  0
SEQEND
  8
NATURAL_GROUND
  0
POLYLINE
  8
CLEAR_GROUND
 62
8
 66
  1
  0
VERTEX
  8
CLEAR_GROUND
 62
8
 10
223.041
 20
1232.162
  0
VERTEX
  8
CLEAR_GROUND
 62
8
 10
237.678
 20
1232.663
  0
VERTEX
  8
CLEAR_GROUND
 62
8
 10
240.673
 20
1232.766
  0
VERTEX
  8
CLEAR_GROUND
 62
8
 10
241.804
 20
1232.384
  0
VERTEX
  8
CLEAR_GROUND
 62
8
 10
243.335
 20
1232.363
  0
VERTEX
  8
CLEAR_GROUND
 62
8
 10
244.670
 20
1232.668
  0
VERTEX
  8
CLEAR_GROUND
 62
8
 10
245.294
 20
1232.758
  0
VERTEX
  8
CLEAR_GROUND
 62
8
 10
246.912
 20
1232.784
  0
VERTEX
  8
CLEAR_GROUND
 62
8
 10
247.727
 20
1232.797
  0
VERTEX
  8
CLEAR_GROUND
 62
8
 10
248.823
 20
1232.781
  0
VERTEX
  8
CLEAR_GROUND
 62
8
 10
249.560
 20
1232.683
  0
VERTEX
  8
CLEAR_GROUND
 62
8
 10
249.994
 20
1232.626
  0
VERTEX
  8
CLEAR_GROUND
 62
8
 10
250.146
 20
1232.607
  0
VERTEX
  8
CLEAR_GROUND
 62
8
 10
251.290
 20
1232.471
  0
VERTEX
  8
CLEAR_GROUND
 62
8
 10
253.784
 20
1232.432
  0
VERTEX
  8
CLEAR_GROUND
 62
8
 10
254.942
 20
1232.731
  0
VERTEX
  8
CLEAR_GROUND
 62
8
 10
255.191
 20
1232.795
  0
VERTEX
  8
CLEAR_GROUND
 62
8
 10
256.800
 20
1232.855
  0
VERTEX
  8
CLEAR_GROUND
 62
8
 10
271.750
 20
1233.418
  0
SEQEND
  8
CLEAR_GROUND
  0
POLYLINE
  8
FINISHED_ROAD
 62
2
 66
  1
  0
VERTEX
  8
FINISHED_ROAD
 62
2
 10
242.673
 20
1234.638
  0
VERTEX
  8
FINISHED_ROAD
 62
2
 10
242.673
 20
1234.638
  0
VERTEX
  8
FINISHED_ROAD
 62
2
 10
247.673
 20
1234.398
  0
VERTEX
  8
FINISHED_ROAD
 62
2
 10
252.673
 20
1234.158
  0
VERTEX
  8
FINISHED_ROAD
 62
2
 10
252.673
 20
1234.158
  0
SEQEND
  8
FINISHED_ROAD
  0
POLYLINE
  8
STRUCTURE_LEFT
 62
4
 66
  1
  0
VERTEX
  8
STRUCTURE_LEFT
 62
4
 10
242.673
 20
1234.638
  0
VERTEX
  8
STRUCTURE_LEFT
 62
4
 10
242.582
 20
1234.592
  0
VERTEX
  8
STRUCTURE_LEFT
 62
4
 10
242.582
 20
1234.592
  0
VERTEX
  8
STRUCTURE_LEFT
 62
4
 10
242.308
 20
1234.456
  0
VERTEX
  8
STRUCTURE_LEFT
 62
4
 10
242.308
 20
1234.456
  0
VERTEX
  8
STRUCTURE_LEFT
 62
4
 10
242.034
 20
1234.319
  0
VERTEX
  8
STRUCTURE_LEFT
 62
4
 10
242.034
 20
1234.319
  0
VERTEX
  8
STRUCTURE_LEFT
 62
4
 10
241.761
 20
1234.182
  0
VERTEX
  8
STRUCTURE_LEFT
 62
4
 10
241.761
 20
1234.182
  0
VERTEX
  8
STRUCTURE_LEFT
 62
4
 10
241.487
 20
1234.045
  0
VERTEX
  8
STRUCTURE_LEFT
 62
4
 10
241.487
 20
1234.045
  0
VERTEX
  8
STRUCTURE_LEFT
 62
4
 10
241.213
 20
1233.908
  0
VERTEX
  8
STRUCTURE_LEFT
 62
4
 10
247.673
 20
1233.598
  0
VERTEX
  8
STRUCTURE_LEFT
 62
4
 10
247.673
 20
1233.748
  0
VERTEX
  8
STRUCTURE_LEFT
 62
4
 10
247.673
 20
1233.748
  0
VERTEX
  8
STRUCTURE_LEFT
 62
4
 10
247.673
 20
1233.898
  0
VERTEX
  8
STRUCTURE_LEFT
 62
4
 10
247.673
 20
1233.898
  0
VERTEX
  8
STRUCTURE_LEFT
 62
4
 10
247.673
 20
1234.048
  0
VERTEX
  8
STRUCTURE_LEFT
 62
4
 10
247.673
 20
1234.048
  0
VERTEX
  8
STRUCTURE_LEFT
 62
4
 10
247.673
 20
1234.198
  0
VERTEX
  8
STRUCTURE_LEFT
 62
4
 10
247.673
 20
1234.198
  0
VERTEX
  8
STRUCTURE_LEFT
 62
4
 10
247.673
 20
1234.348
  0
VERTEX
  8
STRUCTURE_LEFT
 62
4
 10
247.673
 20
1234.348
  0
VERTEX
  8
STRUCTURE_LEFT
 62
4
 10
247.673
 20
1234.398
  0
VERTEX
  8
STRUCTURE_LEFT
 62
4
 10
247.673
 20
1234.398
  0
SEQEND
  8
STRUCTURE_LEFT
  0
POLYLINE
  8
STRUCTURE_RIGHT
 62
6
 66
  1
  0
VERTEX
  8
STRUCTURE_RIGHT
 62
6
 10
247.673
 20
1234.398
  0
VERTEX
  8
STRUCTURE_RIGHT
 62
6
 10
247.673
 20
1234.398
  0
VERTEX
  8
STRUCTURE_RIGHT
 62
6
 10
247.673
 20
1234.348
  0
VERTEX
  8
STRUCTURE_RIGHT
 62
6
 10
247.673
 20
1234.348
  0
VERTEX
  8
STRUCTURE_RIGHT
 62
6
 10
247.673
 20
1234.198
  0
VERTEX
  8
STRUCTURE_RIGHT
 62
6
 10
247.673
 20
1234.198
  0
VERTEX
  8
STRUCTURE_RIGHT
 62
6
 10
247.673
 20
1234.048
  0
VERTEX
  8
STRUCTURE_RIGHT
 62
6
 10
247.673
 20
1234.048
  0
VERTEX
  8
STRUCTURE_RIGHT
 62
6
 10
247.673
 20
1233.898
  0
VERTEX
  8
STRUCTURE_RIGHT
 62
6
 10
247.673
 20
1233.898
  0
VERTEX
  8
STRUCTURE_RIGHT
 62
6
 10
247.673
 20
1233.748
  0
VERTEX
  8
STRUCTURE_RIGHT
 62
6
 10
247.673
 20
1233.748
  0
VERTEX
  8
STRUCTURE_RIGHT
 62
6
 10
247.673
 20
1233.598
  0
VERTEX
  8
STRUCTURE_RIGHT
 62
6
 10
254.443
 20
1233.273
  0
VERTEX
  8
STRUCTURE_RIGHT
 62
6
 10
254.111
 20
1233.439
  0
VERTEX
  8
STRUCTURE_RIGHT
 62
6
 10
254.111
 20
1233.439
  0
VERTEX
  8
STRUCTURE_RIGHT
 62
6
 10
253.779
 20
1233.605
  0
VERTEX
  8
STRUCTURE_RIGHT
 62
6
 10
253.779
 20
1233.605
  0
VERTEX
  8
STRUCTURE_RIGHT
 62
6
 10
253.447
 20
1233.771
  0
VERTEX
  8
STRUCTURE_RIGHT
 62
6
 10
253.447
 20
1233.771
  0
VERTEX
  8
STRUCTURE_RIGHT
 62
6
 10
253.115
 20
1233.937
  0
VERTEX
  8
STRUCTURE_RIGHT
 62
6
 10
253.115
 20
1233.937
  0
VERTEX
  8
STRUCTURE_RIGHT
 62
6
 10
252.784
 20
1234.103
  0
VERTEX
  8
STRUCTURE_RIGHT
 62
6
 10
252.784
 20
1234.103
  0
VERTEX
  8
STRUCTURE_RIGHT
 62
6
 10
252.673
 20
1234.158
  0
SEQEND
  8
STRUCTURE_RIGHT
  0
POLYLINE
  8
LAYER_0
 62
4
 66
  1
  0
VERTEX
  8
LAYER_0
 62
4
 10
242.673
 20
1234.638
  0
VERTEX
  8
LAYER_0
 62
4
 10
242.582
 20
1234.592
  0
VERTEX
  8
LAYER_0
 62
4
 10
247.673
 20
1234.348
  0
VERTEX
  8
LAYER_0
 62
4
 10
247.673
 20
1234.398
  0
SEQEND
  8
LAYER_0
  0
POLYLINE
  8
LAYER_1
 62
4
 66
  1
  0
VERTEX
  8
LAYER_1
 62
4
 10
242.582
 20
1234.592
  0
VERTEX
  8
LAYER_1
 62
4
 10
242.308
 20
1234.456
  0
VERTEX
  8
LAYER_1
 62
4
 10
247.673
 20
1234.198
  0
VERTEX
  8
LAYER_1
 62
4
 10
247.673
 20
1234.348
  0
SEQEND
  8
LAYER_1
  0
POLYLINE
  8
LAYER_2
 62
4
 66
  1
  0
VERTEX
  8
LAYER_2
 62
4
 10
242.308
 20
1234.456
  0
VERTEX
  8
LAYER_2
 62
4
 10
242.034
 20
1234.319
  0
VERTEX
  8
LAYER_2
 62
4
 10
247.673
 20
1234.048
  0
VERTEX
  8
LAYER_2
 62
4
 10
247.673
 20
1234.198
  0
SEQEND
  8
LAYER_2
  0
POLYLINE
  8
LAYER_3
 62
4
 66
  1
  0
VERTEX
  8
LAYER_3
 62
4
 10
242.034
 20
1234.319
  0
VERTEX
  8
LAYER_3
 62
4
 10
241.761
 20
1234.182
  0
VERTEX
  8
LAYER_3
 62
4
 10
247.673
 20
1233.898
  0
VERTEX
  8
LAYER_3
 62
4
 10
247.673
 20
1234.048
  0
SEQEND
  8
LAYER_3
  0
POLYLINE
  8
LAYER_4
 62
4
 66
  1
  0
VERTEX
  8
LAYER_4
 62
4
 10
241.761
 20
1234.182
  0
VERTEX
  8
LAYER_4
 62
4
 10
241.487
 20
1234.045
  0
VERTEX
  8
LAYER_4
 62
4
 10
247.673
 20
1233.748
  0
VERTEX
  8
LAYER_4
 62
4
 10
247.673
 20
1233.898
  0
SEQEND
  8
LAYER_4
  0
POLYLINE
  8
LAYER_5
 62
4
 66
  1
  0
VERTEX
  8
LAYER_5
 62
4
 10
241.487
 20
1234.045
  0
VERTEX
  8
LAYER_5
 62
4
 10
241.213
 20
1233.908
  0
VERTEX
  8
LAYER_5
 62
4
 10
247.673
 20
1233.598
  0
VERTEX
  8
LAYER_5
 62
4
 10
247.673
 20
1233.748
  0
SEQEND
  8
LAYER_5
  0
POLYLINE
  8
LAYER_6
 62
6
 66
  1
  0
VERTEX
  8
LAYER_6
 62
6
 10
252.673
 20
1234.158
  0
VERTEX
  8
LAYER_6
 62
6
 10
252.784
 20
1234.103
  0
VERTEX
  8
LAYER_6
 62
6
 10
247.673
 20
1234.348
  0
VERTEX
  8
LAYER_6
 62
6
 10
247.673
 20
1234.398
  0
SEQEND
  8
LAYER_6
  0
POLYLINE
  8
LAYER_7
 62
6
 66
  1
  0
VERTEX
  8
LAYER_7
 62
6
 10
252.784
 20
1234.103
  0
VERTEX
  8
LAYER_7
 62
6
 10
253.115
 20
1233.937
  0
VERTEX
  8
LAYER_7
 62
6
 10
247.673
 20
1234.198
  0
VERTEX
  8
LAYER_7
 62
6
 10
247.673
 20
1234.348
  0
SEQEND
  8
LAYER_7
  0
POLYLINE
  8
LAYER_8
 62
6
 66
  1
  0
VERTEX
  8
LAYER_8
 62
6
 10
253.115
 20
1233.937
  0
VERTEX
  8
LAYER_8
 62
6
 10
253.447
 20
1233.771
  0
VERTEX
  8
LAYER_8
 62
6
 10
247.673
 20
1234.048
  0
VERTEX
  8
LAYER_8
 62
6
 10
247.673
 20
1234.198
  0
SEQEND
  8
LAYER_8
  0
POLYLINE
  8
LAYER_9
 62
6
 66
  1
  0
VERTEX
  8
LAYER_9
 62
6
 10
253.447
 20
1233.771
  0
VERTEX
  8
LAYER_9
 62
6
 10
253.779
 20
1233.605
  0
VERTEX
  8
LAYER_9
 62
6
 10
247.673
 20
1233.898
  0
VERTEX
  8
LAYER_9
 62
6
 10
247.673
 20
1234.048
  0
SEQEND
  8
LAYER_9
  0
POLYLINE
  8
LAYER_10
 62
6
 66
  1
  0
VERTEX
  8
LAYER_10
 62
6
 10
253.779
 20
1233.605
  0
VERTEX
  8
LAYER_10
 62
6
 10
254.111
 20
1233.439
  0
VERTEX
  8
LAYER_10
 62
6
 10
247.673
 20
1233.748
  0
VERTEX
  8
LAYER_10
 62
6
 10
247.673
 20
1233.898
  0
SEQEND
  8
LAYER_10
  0
POLYLINE
  8
LAYER_11
 62
6
 66
  1
  0
VERTEX
  8
LAYER_11
 62
6
 10
254.111
 20
1233.439
  0
VERTEX
  8
LAYER_11
 62
6
 10
254.443
 20
1233.273
  0
VERTEX
  8
LAYER_11
 62
6
 10
247.673
 20
1233.598
  0
VERTEX
  8
LAYER_11
 62
6
 10
247.673
 20
1233.748
  0
SEQEND
  8
LAYER_11
  0
POLYLINE
  8
A4_BORDER
 62
7
 66
  1
  0
VERTEX
  8
A4_BORDER
 62
7
 10
232.823
 20
1223.852
  0
VERTEX
  8
A4_BORDER
 62
7
 10
262.523
 20
1223.852
  0
VERTEX
  8
A4_BORDER
 62
7
 10
262.523
 20
1244.852
  0
VERTEX
  8
A4_BORDER
 62
7
 10
232.823
 20
1244.852
  0
VERTEX
  8
A4_BORDER
 62
7
 10
232.823
 20
1223.852
  0
SEQEND
  8
A4_BORDER
  0
TEXT
  8
STATION_TITLE
 10
247.673
 20
1231.352
 40
0.360
 50
0.000
  1
K105+450
 72
  1
 11
247.673
 21
1231.352
  0
TEXT
  8
POINT_TEXT_H
 10
247.673
 20
1234.758
 40
0.300
 50
90.000
  1
1234.398
  0
TEXT
  8
LEFT_TEXT_H
 10
242.673
 20
1234.998
 40
0.300
 50
90.000
  1
1234.638
  0
TEXT
  8
RIGHT_TEXT_H
 10
252.673
 20
1234.518
 40
0.300
 50
90.000
  1
1234.158
  0
TEXT
  8
SLOPE_TEXT
 10
245.173
 20
1234.758
 40
0.300
 50
0.000
  1
4.80%
 72
  1
 11
245.173
 21
1234.758
  0
TEXT
  8
SLOPE_TEXT
 10
250.173
 20
1234.518
 40
0.300
 50
0.000
  1
-4.80%
 72
  1
 11
250.173
 21
1234.518
  0
TEXT
  8
SLOPE_TEXT
 10
240.656
 20
1233.831
 40
0.300
 50
26.565
  1
1:2.00
 72
  1
 73
  1
 11
240.656
 21
1233.831
  0
TEXT
  8
SLOPE_TEXT
 10
254.109
 20
1233.641
 40
0.300
 50
-26.565
  1
1:2.00
 72
  1
 73
  1
 11
254.109
 21
1233.641
  0
TEXT
  8
INFO_TEXT
 10
246.323
 20
1230.752
 40
0.30
  1
AT:15.004
  0
TEXT
  8
INFO_TEXT
 10
246.323
 20
1230.302
 40
0.30
  1
AW:0.000
  0
TEXT
  8
INFO_TEXT
 10
246.323
 20
1229.852
 40
0.30
  1
Topsoil:16.755
  0
TEXT
  8
INFO_TEXT
 10
246.323
 20
1229.402
 40
0.30
  1
L:top:0.252
  0
TEXT
  8
INFO_TEXT
 10
246.323
 20
1228.952
 40
0.30
  1
L:CRR:0.784
  0
TEXT
  8
INFO_TEXT
 10
246.323
 20
1228.502
 40
0.30
  1
L:C1:0.825
  0
TEXT
  8
INFO_TEXT
 10
246.323
 20
1228.052
 40
0.30
  1
L:C2:0.866
  0
TEXT
  8
INFO_TEXT
 10
246.323
 20
1227.602
 40
0.30
  1
L:G15:0.907
  0
TEXT
  8
INFO_TEXT
 10
246.323
 20
1227.152
 40
0.30
  1
L:G7:0.948
  0
TEXT
  8
INFO_TEXT
 10
246.323
 20
1226.702
 40
0.30
  1
R:top:0.253
  0
TEXT
  8
INFO_TEXT
 10
246.323
 20
1226.252
 40
0.30
  1
R:CRR:0.791
  0
TEXT
  8
INFO_TEXT
 10
246.323
 20
1225.802
 40
0.30
  1
R:C1:0.841
  0
TEXT
  8
INFO_TEXT
 10
246.323
 20
1225.352
 40
0.30
  1
R:C2:0.891
  0
TEXT
  8
INFO_TEXT
 10
246.323
 20
1224.902
 40
0.30
  1
R:G15:0.941
  0
TEXT
  8
INFO_TEXT
 10
246.323
 20
1224.452
 40
0.30
  1
R:G17:0.991
  0
ENDSEC
  0
EOF
